<svg width="120" height="40" viewBox="0 0 120 40" fill="none" xmlns="http://www.w3.org/2000/svg">
<g clip-path="url(#clip0_8533_4575)">
<path d="M110.135 0L8.44 0.002L7.52 0.015C6.85 0.023 6.18 0.082 5.517 0.19C4.854 0.298 4.215 0.514 3.617 0.817C3.01915 1.12317 2.47288 1.52097 1.998 1.996C1.5204 2.4698 1.12229 3.01749 0.819 3.618C0.515064 4.21684 0.304304 4.85856 0.194 5.521C0.084 6.183 0.024 6.851 0.014 7.523L0 8.444V31.56L0.015 32.482C0.0228703 33.153 0.082716 33.8223 0.194 34.484C0.304053 35.1468 0.514823 35.7889 0.819 36.388C1.12197 36.9861 1.51979 37.5311 1.997 38.002C2.47 38.479 3.017 38.877 3.617 39.182C4.21547 39.4864 4.8563 39.6991 5.518 39.813C6.181 39.923 6.85 39.981 7.522 39.99L8.442 40H9.535L112.141 39.987C112.811 39.9786 113.48 39.9194 114.141 39.81C114.805 39.695 115.448 39.483 116.049 39.18C116.65 38.877 117.194 38.478 117.666 38C118.138 37.522 118.541 36.982 118.848 36.386C119.155 35.79 119.358 35.144 119.468 34.482C119.578 33.82 119.642 33.152 119.654 32.48L119.658 31.558L119.666 30.464L119.654 7.524C119.642 6.854 119.58 6.184 119.468 5.522C119.359 4.85997 119.151 4.2183 118.849 3.619C118.232 2.416 117.253 1.437 116.049 0.819C115.448 0.5163 114.805 0.304975 114.141 0.192C113.481 0.092 112.811 0.022 112.141 0.015L111.219 0.002L110.135 0Z" fill="#A6A6A6"/>
<path d="M8.44507 39.125C8.1437 39.1247 7.84235 39.1211 7.54107 39.114C6.91507 39.106 6.29107 39.051 5.67107 38.951C5.09507 38.851 4.53607 38.667 4.01407 38.403C3.49207 38.139 3.02407 37.798 2.61707 37.386C2.20287 36.9795 1.85798 36.5079 1.59607 35.99C1.33145 35.4686 1.14832 34.9098 1.05307 34.333C0.95007 33.713 0.89307 33.086 0.88707 32.458L0.87207 31.545V8.44498L0.88707 7.54998C0.894854 6.92267 0.950347 6.29686 1.05307 5.67798C1.14807 5.09998 1.33307 4.53798 1.59607 4.01598C1.85607 3.49798 2.20007 3.01598 2.61107 2.61798C3.02207 2.21998 3.49507 1.86098 4.01307 1.59598C4.53107 1.33098 5.09107 1.14998 5.66607 1.05198C6.28607 0.951977 6.91307 0.895977 7.54207 0.887977L8.44407 0.875977L112.126 0.888977C112.749 0.895977 113.37 0.950977 113.984 1.05198C114.565 1.15072 115.128 1.33541 115.655 1.59998C116.693 2.13498 117.537 2.97998 118.07 4.01998C118.33 4.53998 118.51 5.09498 118.605 5.66998C118.709 6.29398 118.767 6.92498 118.779 7.55698L118.782 8.45698L118.79 9.54898L118.778 32.483C118.766 33.104 118.709 33.7233 118.607 34.336C118.514 34.917 118.332 35.4803 118.067 36.006C117.803 36.5185 117.461 36.9863 117.051 37.392C116.641 37.806 116.171 38.152 115.651 38.415C115.126 38.6811 114.564 38.8665 113.983 38.965C113.365 39.0659 112.74 39.1204 112.114 39.128L111.217 39.138L110.133 39.14L8.43307 39.138L8.44507 39.125Z" fill="black"/>
<path d="M24.77 20.3C24.7809 19.4653 25.0028 18.647 25.4149 17.921C25.8269 17.1951 26.4159 16.5852 27.127 16.148C26.211 14.84 24.732 14.04 23.127 13.99C21.447 13.814 19.82 14.995 18.964 14.995C18.092 14.995 16.764 14.008 15.356 14.037C13.489 14.097 11.791 15.133 10.883 16.765C8.94902 20.113 10.383 25.035 12.243 27.741C13.17 29.066 14.243 30.547 15.671 30.494C17.058 30.436 17.576 29.61 19.251 29.61C20.911 29.61 21.396 30.494 22.851 30.46C24.339 30.436 25.277 29.13 26.171 27.79C26.8369 26.8455 27.3493 25.8016 27.689 24.697C26.8242 24.3315 26.0862 23.7193 25.5671 22.937C25.048 22.1547 24.7708 21.2369 24.77 20.298V20.3ZM22.037 12.2C22.849 11.2259 23.2491 9.97344 23.152 8.70898C21.9121 8.83945 20.7667 9.43212 19.944 10.369C19.132 11.293 18.72 12.503 18.8 13.729C19.4202 13.7354 20.0337 13.601 20.5944 13.336C21.155 13.071 21.6483 12.6832 22.037 12.2ZM42.302 27.13H37.57L36.433 30.486H34.428L38.911 18.068H40.994L45.477 30.486H43.437L42.3 27.14L42.302 27.13ZM38.06 25.6H41.812L39.962 20.153H39.902L38.05 25.6H38.06ZM55.16 25.98C55.16 28.793 53.654 30.6 51.382 30.6C50.8063 30.6301 50.2338 30.4975 49.7299 30.2173C49.2261 29.9372 48.8113 29.5209 48.533 29.016H48.5V33.5H46.63V21.44H48.43V22.946H48.464C48.7548 22.4433 49.1765 22.0289 49.6842 21.747C50.1919 21.465 50.7666 21.3261 51.347 21.345C53.645 21.345 55.16 23.161 55.16 25.967V25.98ZM53.26 25.98C53.26 24.147 52.313 22.942 50.867 22.942C49.447 22.942 48.492 24.172 48.492 25.98C48.492 27.804 49.447 29.026 50.867 29.026C52.312 29.026 53.26 27.83 53.26 25.98ZM65.125 25.98C65.125 28.793 63.619 30.6 61.347 30.6C60.7713 30.6301 60.1988 30.4975 59.6949 30.2173C59.1911 29.9372 58.7763 29.5209 58.498 29.016H58.455V33.5H56.597V21.44H58.397V22.946H58.431C58.7218 22.4433 59.1435 22.0289 59.6512 21.747C60.1589 21.465 60.7336 21.3261 61.314 21.345C63.612 21.345 65.127 23.161 65.127 25.967L65.125 25.98ZM63.225 25.98C63.225 24.147 62.278 22.942 60.832 22.942C59.412 22.942 58.457 24.172 58.457 25.98C58.457 27.804 59.412 29.026 60.832 29.026C62.277 29.026 63.225 27.83 63.225 25.98ZM71.7 27.046C71.838 28.276 73.034 29.086 74.67 29.086C76.236 29.086 77.363 28.286 77.363 27.166C77.363 26.202 76.683 25.626 75.063 25.229L73.463 24.841C71.183 24.291 70.123 23.224 70.123 21.493C70.123 19.35 71.99 17.879 74.643 17.879C77.267 17.879 79.066 19.351 79.126 21.493H77.26C77.148 20.253 76.123 19.506 74.626 19.506C73.129 19.506 72.106 20.263 72.106 21.364C72.106 22.242 72.76 22.759 74.361 23.164L75.729 23.5C78.277 24.103 79.335 25.126 79.335 26.942C79.335 29.265 77.485 30.72 74.541 30.72C71.787 30.72 69.928 29.3 69.808 27.053H71.7V27.046ZM83.346 19.3V21.443H85.068V22.915H83.346V27.915C83.346 28.69 83.691 29.052 84.448 29.052C84.6523 29.0484 84.8562 29.0341 85.059 29.009V30.472C84.7188 30.5356 84.373 30.5644 84.027 30.558C82.194 30.558 81.479 29.87 81.479 28.114V22.914H80.163V21.442H81.479V19.3H83.346ZM86.066 25.97C86.066 23.12 87.744 21.33 90.36 21.33C92.985 21.33 94.655 23.13 94.655 25.97C94.655 28.826 92.995 30.61 90.36 30.61C87.725 30.61 86.066 28.828 86.066 25.97ZM92.761 25.97C92.761 24.016 91.865 22.863 90.361 22.863C88.857 22.863 87.961 24.025 87.961 25.97C87.961 27.932 88.856 29.076 90.361 29.076C91.866 29.076 92.761 27.931 92.761 25.97ZM96.187 21.442H97.959V22.982H98C98.12 22.5007 98.402 22.0753 98.7986 21.7774C99.1952 21.4795 99.6823 21.3271 100.178 21.346C100.392 21.345 100.606 21.369 100.815 21.416V23.154C100.545 23.0715 100.263 23.0337 99.98 23.042C99.434 23.02 98.905 23.238 98.533 23.638C98.3493 23.8361 98.2104 24.0714 98.1259 24.3281C98.0413 24.5847 98.013 24.8565 98.043 25.125V30.495H96.185V21.44L96.187 21.442ZM109.385 27.837C109.135 29.481 107.535 30.607 105.487 30.607C102.853 30.607 101.217 28.842 101.217 26.011C101.217 23.171 102.861 21.329 105.417 21.329C107.922 21.329 109.497 23.049 109.497 25.795V26.432H103.1V26.544C103.071 26.8771 103.113 27.2126 103.223 27.5283C103.334 27.844 103.51 28.1326 103.74 28.375C103.97 28.6175 104.25 28.8082 104.559 28.9345C104.869 29.0609 105.202 29.12 105.536 29.108C105.975 29.1489 106.416 29.0472 106.792 28.8179C107.169 28.5885 107.462 28.2439 107.627 27.835H109.392L109.385 27.837ZM103.103 25.135H107.629C107.663 24.529 107.442 23.937 107.021 23.501C106.6 23.065 106.015 22.824 105.409 22.837C105.106 22.8349 104.806 22.8928 104.526 23.0074C104.246 23.1221 103.991 23.2911 103.777 23.5048C103.562 23.7185 103.392 23.9727 103.277 24.2525C103.161 24.5323 103.102 24.8322 103.103 25.135ZM37.826 8.72998C38.2157 8.70203 38.6067 8.76089 38.9708 8.90233C39.3349 9.04377 39.6632 9.26426 39.9318 9.54789C40.2004 9.83153 40.4027 10.1712 40.5241 10.5425C40.6456 10.9138 40.6831 11.3074 40.634 11.695C40.634 13.601 39.604 14.697 37.826 14.697H35.67V8.72998H37.826ZM36.596 13.853H37.721C38.285 13.887 38.834 13.665 39.216 13.248C39.4046 13.0428 39.545 12.798 39.6269 12.5315C39.7087 12.2651 39.7299 11.9837 39.689 11.708C39.7269 11.4331 39.7036 11.1532 39.6205 10.8884C39.5375 10.6236 39.3968 10.3805 39.2087 10.1765C39.0206 9.97249 38.7896 9.81267 38.5324 9.7085C38.2752 9.60433 37.9981 9.55839 37.721 9.57399H36.596V13.854V13.853Z" fill="white"/>
<path d="M41.68 12.4444C41.603 11.6374 41.98 10.8564 42.68 10.4284C43.38 10.0004 44.24 10.0004 44.93 10.4284C45.62 10.8564 46.006 11.6384 45.93 12.4444C46.01 13.2524 45.622 14.0344 44.932 14.4644C44.242 14.8944 43.37 14.8924 42.68 14.4644C41.99 14.0364 41.604 13.2544 41.682 12.4444H41.68ZM45.013 12.4444C45.013 11.4684 44.575 10.8974 43.805 10.8974C43.035 10.8974 42.598 11.4674 42.598 12.4444C42.598 13.4284 43.033 13.9944 43.805 13.9944C44.577 13.9944 45.013 13.4244 45.013 12.4444Z" fill="white"/>
<path d="M51.573 14.6983H50.651L49.721 11.3823H49.651L48.724 14.6983H47.811L46.571 10.1953H47.471L48.278 13.6313H48.344L49.27 10.1953H50.123L51.049 13.6313H51.119L51.922 10.1953H52.812L51.573 14.6983Z" fill="white"/>
<path d="M53.8541 10.1954H54.7091V10.9104H54.7751C54.888 10.6536 55.0781 10.4384 55.319 10.2947C55.5599 10.151 55.8395 10.0859 56.1191 10.1084C56.5631 10.0754 56.9991 10.2454 57.3011 10.5714C57.6031 10.8974 57.7431 11.3434 57.6781 11.7834V14.6984H56.7881V12.0064C56.7881 11.2824 56.4741 10.9224 55.8161 10.9224C55.5161 10.9084 55.2231 11.0264 55.0161 11.2454C54.8091 11.4644 54.7091 11.7634 54.7411 12.0634V14.6974H53.8511V10.1944L53.8541 10.1954Z" fill="white"/>
<path d="M59.094 8.43701H59.994V14.697H59.094V8.43701ZM61.218 12.444C61.141 11.637 61.518 10.856 62.218 10.428C62.5556 10.218 62.9453 10.1067 63.343 10.1067C63.7406 10.1067 64.1303 10.218 64.468 10.428C65.168 10.856 65.544 11.628 65.468 12.444C65.548 13.252 65.16 14.044 64.47 14.464C64.1321 14.6744 63.742 14.786 63.344 14.786C62.946 14.786 62.5559 14.6744 62.218 14.464C61.528 14.036 61.142 13.264 61.22 12.444H61.218ZM64.551 12.444C64.551 11.468 64.113 10.897 63.343 10.897C62.573 10.897 62.136 11.467 62.136 12.444C62.136 13.428 62.571 13.994 63.343 13.994C64.115 13.994 64.551 13.424 64.551 12.444ZM66.401 13.424C66.401 12.624 67.005 12.146 68.076 12.08L69.296 12.01V11.61C69.296 11.134 68.982 10.866 68.374 10.866C67.878 10.866 67.534 11.048 67.436 11.366H66.576C66.676 10.593 67.394 10.096 68.416 10.096C69.546 10.096 70.182 10.658 70.182 11.609V14.686H69.327V14.053H69.257C68.957 14.515 68.45 14.785 67.904 14.76C67.7149 14.7797 67.5238 14.7596 67.343 14.7009C67.1622 14.6422 66.9957 14.5462 66.8543 14.4192C66.7128 14.2922 66.5996 14.1369 66.5219 13.9634C66.4441 13.79 66.4036 13.6021 66.403 13.412L66.401 13.424ZM69.296 13.039V12.663L68.196 12.733C67.576 12.773 67.296 12.985 67.296 13.383C67.296 13.788 67.648 14.023 68.131 14.023C68.2726 14.0376 68.4158 14.0234 68.5519 13.9814C68.6879 13.9395 68.8141 13.8705 68.923 13.7786C69.0318 13.6868 69.121 13.574 69.1853 13.4469C69.2495 13.3198 69.2865 13.1811 69.296 13.039ZM71.349 12.444C71.349 11.021 72.079 10.12 73.219 10.12C73.5016 10.1064 73.7822 10.1746 74.0269 10.3166C74.2717 10.4585 74.4704 10.668 74.599 10.92H74.665V8.43701H75.565V14.697H74.713V13.997H74.643C74.343 14.501 73.81 14.804 73.229 14.783C72.083 14.783 71.359 13.883 71.359 12.455L71.349 12.444ZM72.267 12.444C72.267 13.399 72.717 13.974 73.47 13.974C74.223 13.974 74.682 13.391 74.682 12.448C74.682 11.505 74.214 10.918 73.47 10.918C72.726 10.918 72.267 11.498 72.267 12.444Z" fill="white"/>
<path d="M79.2301 12.4444C79.1531 11.6374 79.5301 10.8564 80.2301 10.4284C80.9301 10.0004 81.7901 10.0004 82.4801 10.4284C83.1701 10.8564 83.5561 11.6384 83.4801 12.4444C83.5601 13.2524 83.1721 14.0344 82.4821 14.4644C81.7921 14.8944 80.9201 14.8924 80.2301 14.4644C79.5401 14.0364 79.1541 13.2544 79.2321 12.4444H79.2301ZM82.5631 12.4444C82.5631 11.4684 82.1251 10.8974 81.3551 10.8974C80.5851 10.8974 80.1481 11.4674 80.1481 12.4444C80.1481 13.4284 80.5831 13.9944 81.3551 13.9944C82.1271 13.9944 82.5631 13.4244 82.5631 12.4444Z" fill="white"/>
<path d="M84.67 10.1954H85.525V10.9104H85.591C85.7039 10.6536 85.8941 10.4384 86.1349 10.2947C86.3758 10.151 86.6554 10.0859 86.935 10.1084C87.379 10.0754 87.815 10.2454 88.117 10.5714C88.419 10.8974 88.559 11.3434 88.494 11.7834V14.6984H87.604V12.0064C87.604 11.2824 87.29 10.9224 86.632 10.9224C86.332 10.9084 86.039 11.0264 85.832 11.2454C85.625 11.4644 85.525 11.7634 85.557 12.0634V14.6974H84.667V10.1944L84.67 10.1954Z" fill="white"/>
<path d="M93.5151 9.07422V10.2162H94.4911V10.9662H93.5151V13.2812C93.5151 13.7532 93.7091 13.9592 94.1521 13.9592C94.2651 13.9592 94.3781 13.9522 94.4921 13.9392V14.6792C94.3321 14.7092 94.1721 14.7232 94.0091 14.7242C93.0211 14.7242 92.6271 14.3762 92.6271 13.5082V10.9652H91.9121V10.2152H92.6271V9.07522H93.5271L93.5151 9.07422ZM95.7151 8.43722H96.5951V10.9172H96.6651C96.9071 10.3872 97.4651 10.0632 98.0381 10.1102C98.4781 10.0862 98.9081 10.2602 99.2081 10.5852C99.3563 10.7455 99.4672 10.9365 99.5329 11.1447C99.5986 11.3528 99.6175 11.5729 99.5881 11.7892V14.6962H98.6881V12.0002C98.6881 11.2802 98.3531 10.9162 97.7251 10.9162C97.5722 10.9033 97.4184 10.9241 97.2744 10.977C97.1304 11.0299 96.9998 11.1138 96.8917 11.2226C96.7836 11.3315 96.7006 11.4627 96.6487 11.6071C96.5968 11.7515 96.5771 11.9054 96.5911 12.0582V14.6882H95.6911V8.42822L95.7151 8.43722ZM104.77 13.4822C104.649 13.8936 104.387 14.2494 104.031 14.4875C103.674 14.7256 103.245 14.831 102.819 14.7852C102.219 14.8012 101.642 14.5522 101.241 14.1052C100.84 13.6582 100.657 13.0552 100.739 12.4612C100.7 12.1665 100.725 11.8668 100.811 11.5824C100.898 11.298 101.044 11.0354 101.241 10.8124C101.438 10.5895 101.68 10.4112 101.951 10.2897C102.223 10.1683 102.517 10.1064 102.814 10.1082C104.067 10.1082 104.814 10.9642 104.814 12.3782V12.6782H101.634V12.7282C101.62 12.8935 101.641 13.0598 101.695 13.2165C101.749 13.3733 101.835 13.517 101.948 13.6384C102.061 13.7599 102.198 13.8564 102.351 13.9218C102.503 13.9872 102.667 14.0201 102.833 14.0182C103.046 14.0436 103.261 14.0052 103.452 13.908C103.642 13.8108 103.8 13.6591 103.904 13.4722H104.759L104.77 13.4822ZM101.644 12.0322H103.918C103.929 11.8809 103.909 11.7289 103.858 11.586C103.807 11.4431 103.727 11.3123 103.622 11.2022C103.412 10.9792 103.116 10.8572 102.809 10.8642C102.655 10.8621 102.503 10.8908 102.36 10.9487C102.218 11.0066 102.088 11.0925 101.979 11.2013C101.871 11.3101 101.785 11.4396 101.727 11.5822C101.669 11.7247 101.641 11.8774 101.643 12.0312L101.644 12.0322Z" fill="white"/>
</g>
<defs>
<clipPath id="clip0_8533_4575">
<rect width="120" height="40" fill="white"/>
</clipPath>
</defs>
</svg>
