<svg width="135" height="40" viewBox="0 0 135 40" fill="none" xmlns="http://www.w3.org/2000/svg">
<g clip-path="url(#clip0_8533_4592)">
<path d="M130 39.9998H5.00001C4.34154 40.0065 3.68836 39.8817 3.07871 39.6328C2.46906 39.3839 1.91521 39.0158 1.44958 38.5502C0.983946 38.0846 0.615901 37.5307 0.366995 36.9211C0.118089 36.3114 -0.00667447 35.6582 1.09959e-05 34.9998V4.99977C-0.00667447 4.3413 0.118089 3.68812 0.366995 3.07847C0.615901 2.46882 0.983946 1.91496 1.44958 1.44933C1.91521 0.983702 2.46906 0.615657 3.07871 0.366751C3.68836 0.117845 4.34154 -0.00691861 5.00001 -0.000233145H130C130.658 -0.00691861 131.312 0.117845 131.921 0.366751C132.531 0.615657 133.085 0.983702 133.55 1.44933C134.016 1.91496 134.384 2.46882 134.633 3.07847C134.882 3.68812 135.007 4.3413 135 4.99977V34.9998C135 37.6998 132.8 39.9998 130 39.9998Z" fill="black"/>
<path d="M130 0.799767C131.111 0.807622 132.175 1.25264 132.961 2.0386C133.747 2.82456 134.192 3.88828 134.2 4.99977V34.9998C134.192 36.1112 133.747 37.175 132.961 37.9609C132.175 38.7469 131.111 39.1919 130 39.1998H5.00001C3.88853 39.1919 2.8248 38.7469 2.03884 37.9609C1.25289 37.175 0.807866 36.1112 0.800011 34.9998V4.99977C0.807866 3.88828 1.25289 2.82456 2.03884 2.0386C2.8248 1.25264 3.88853 0.807622 5.00001 0.799767H130ZM130 -0.000233145H5.00001C4.34154 -0.00691861 3.68836 0.117845 3.07871 0.366751C2.46906 0.615657 1.91521 0.983702 1.44958 1.44933C0.983946 1.91496 0.615901 2.46882 0.366995 3.07847C0.118089 3.68812 -0.00667447 4.3413 1.09959e-05 4.99977V34.9998C-0.00667447 35.6582 0.118089 36.3114 0.366995 36.9211C0.615901 37.5307 0.983946 38.0846 1.44958 38.5502C1.91521 39.0158 2.46906 39.3839 3.07871 39.6328C3.68836 39.8817 4.34154 40.0065 5.00001 39.9998H130C130.658 40.0065 131.312 39.8817 131.921 39.6328C132.531 39.3839 133.085 39.0158 133.55 38.5502C134.016 38.0846 134.384 37.5307 134.633 36.9211C134.882 36.3114 135.007 35.6582 135 34.9998V4.99977C135 2.29977 132.8 -0.000233145 130 -0.000233145Z" fill="#A6A6A6"/>
<path d="M47.4001 10.1999C47.4001 10.9999 47.2001 11.6999 46.7001 12.1999C46.1001 12.7999 45.4001 13.0999 44.5001 13.0999C43.6001 13.0999 42.9001 12.7999 42.3001 12.1999C41.7001 11.5999 41.4001 10.8999 41.4001 9.9999C41.4001 9.0999 41.7001 8.3999 42.3001 7.7999C42.9001 7.1999 43.6001 6.8999 44.5001 6.8999C44.9001 6.8999 45.3001 6.9999 45.7001 7.1999C46.1001 7.3999 46.4001 7.5999 46.6001 7.8999L46.1001 8.3999C45.7001 7.8999 45.2001 7.6999 44.5001 7.6999C43.9001 7.6999 43.3001 7.8999 42.9001 8.3999C42.4001 8.7999 42.2001 9.3999 42.2001 10.0999C42.2001 10.7999 42.4001 11.3999 42.9001 11.7999C43.4001 12.1999 43.9001 12.4999 44.5001 12.4999C44.8173 12.5134 45.1336 12.4578 45.4272 12.3369C45.7207 12.2161 45.9845 12.0328 46.2001 11.7999C46.5001 11.4999 46.7001 11.0999 46.7001 10.5999H44.5001V9.8999H47.4001V10.1999ZM52.0001 7.6999H49.3001V9.5999H51.8001V10.2999H49.3001V12.1999H52.0001V12.9999H48.5001V6.9999H52.0001V7.6999ZM55.3001 12.9999H54.5001V7.6999H52.8001V6.9999H57.0001V7.6999H55.3001V12.9999ZM59.9001 12.9999V6.9999H60.7001V12.9999H59.9001ZM64.1001 12.9999H63.3001V7.6999H61.6001V6.9999H65.7001V7.6999H64.0001V12.9999H64.1001ZM73.6001 12.1999C73.0001 12.7999 72.3001 13.0999 71.4001 13.0999C70.5001 13.0999 69.8001 12.7999 69.2001 12.1999C68.6001 11.5999 68.3001 10.8999 68.3001 9.9999C68.3001 9.0999 68.6001 8.3999 69.2001 7.7999C69.8001 7.1999 70.5001 6.8999 71.4001 6.8999C72.3001 6.8999 73.0001 7.1999 73.6001 7.7999C74.2001 8.3999 74.5001 9.0999 74.5001 9.9999C74.5001 10.8999 74.2001 11.5999 73.6001 12.1999ZM69.8001 11.6999C70.2001 12.0999 70.8001 12.3999 71.4001 12.3999C72.0001 12.3999 72.6001 12.1999 73.0001 11.6999C73.4001 11.2999 73.7001 10.6999 73.7001 9.9999C73.7001 9.2999 73.5001 8.6999 73.0001 8.2999C72.6001 7.8999 72.0001 7.5999 71.4001 7.5999C70.8001 7.5999 70.2001 7.7999 69.8001 8.2999C69.4001 8.6999 69.1001 9.2999 69.1001 9.9999C69.1001 10.6999 69.3001 11.2999 69.8001 11.6999ZM75.6001 12.9999V6.9999H76.5001L79.4001 11.6999V6.9999H80.2001V12.9999H79.4001L76.3001 8.0999V12.9999H75.6001Z" fill="white" stroke="white" stroke-width="0.2"/>
<path d="M68.1001 21.8001C65.7001 21.8001 63.8001 23.6001 63.8001 26.1001C63.8001 28.5001 65.7001 30.4001 68.1001 30.4001C70.5001 30.4001 72.4001 28.6001 72.4001 26.1001C72.4001 23.5001 70.5001 21.8001 68.1001 21.8001ZM68.1001 28.6001C66.8001 28.6001 65.7001 27.5001 65.7001 26.0001C65.7001 24.5001 66.8001 23.4001 68.1001 23.4001C69.4001 23.4001 70.5001 24.4001 70.5001 26.0001C70.5001 27.5001 69.4001 28.6001 68.1001 28.6001ZM58.8001 21.8001C56.4001 21.8001 54.5001 23.6001 54.5001 26.1001C54.5001 28.5001 56.4001 30.4001 58.8001 30.4001C61.2001 30.4001 63.1001 28.6001 63.1001 26.1001C63.1001 23.5001 61.2001 21.8001 58.8001 21.8001ZM58.8001 28.6001C57.5001 28.6001 56.4001 27.5001 56.4001 26.0001C56.4001 24.5001 57.5001 23.4001 58.8001 23.4001C60.1001 23.4001 61.2001 24.4001 61.2001 26.0001C61.2001 27.5001 60.1001 28.6001 58.8001 28.6001ZM47.7001 23.1001V24.9001H52.0001C51.9001 25.9001 51.5001 26.7001 51.0001 27.2001C50.4001 27.8001 49.4001 28.5001 47.7001 28.5001C45.0001 28.5001 43.0001 26.4001 43.0001 23.7001C43.0001 21.0001 45.1001 18.9001 47.7001 18.9001C49.1001 18.9001 50.2001 19.5001 51.0001 20.2001L52.3001 18.9001C51.2001 17.9001 49.8001 17.1001 47.8001 17.1001C44.2001 17.1001 41.1001 20.1001 41.1001 23.7001C41.1001 27.3001 44.2001 30.3001 47.8001 30.3001C49.8001 30.3001 51.2001 29.7001 52.4001 28.4001C53.6001 27.2001 54.0001 25.5001 54.0001 24.2001C54.0001 23.8001 54.0001 23.4001 53.9001 23.1001H47.7001ZM93.1001 24.5001C92.7001 23.5001 91.7001 21.8001 89.5001 21.8001C87.3001 21.8001 85.5001 23.5001 85.5001 26.1001C85.5001 28.5001 87.3001 30.4001 89.7001 30.4001C91.6001 30.4001 92.8001 29.2001 93.2001 28.5001L91.8001 27.5001C91.3001 28.2001 90.7001 28.7001 89.7001 28.7001C88.7001 28.7001 88.1001 28.3001 87.6001 27.4001L93.3001 25.0001L93.1001 24.5001ZM87.3001 25.9001C87.3001 24.3001 88.6001 23.4001 89.5001 23.4001C90.2001 23.4001 90.9001 23.8001 91.1001 24.3001L87.3001 25.9001ZM82.6001 30.0001H84.5001V17.5001H82.6001V30.0001ZM79.6001 22.7001C79.1001 22.2001 78.3001 21.7001 77.3001 21.7001C75.2001 21.7001 73.2001 23.6001 73.2001 26.0001C73.2001 28.4001 75.1001 30.2001 77.3001 30.2001C78.3001 30.2001 79.1001 29.7001 79.5001 29.2001H79.6001V29.8001C79.6001 31.4001 78.7001 32.3001 77.3001 32.3001C76.2001 32.3001 75.4001 31.5001 75.2001 30.8001L73.6001 31.5001C74.1001 32.6001 75.3001 34.0001 77.4001 34.0001C79.6001 34.0001 81.4001 32.7001 81.4001 29.6001V22.0001H79.6001V22.7001ZM77.4001 28.6001C76.1001 28.6001 75.0001 27.5001 75.0001 26.0001C75.0001 24.5001 76.1001 23.4001 77.4001 23.4001C78.7001 23.4001 79.7001 24.5001 79.7001 26.0001C79.7001 27.5001 78.7001 28.6001 77.4001 28.6001ZM101.8 17.5001H97.3001V30.0001H99.2001V25.3001H101.8C103.9 25.3001 105.9 23.8001 105.9 21.4001C105.9 19.0001 103.9 17.5001 101.8 17.5001ZM101.9 23.5001H99.2001V19.2001H101.9C102.467 19.1995 103.012 19.4175 103.421 19.8087C103.831 20.1999 104.074 20.7341 104.1 21.3001C104 22.4001 103.2 23.5001 101.9 23.5001ZM113.4 21.7001C112 21.7001 110.6 22.3001 110.1 23.6001L111.8 24.3001C112.2 23.6001 112.8 23.4001 113.5 23.4001C114.5 23.4001 115.4 24.0001 115.5 25.0001V25.1001C115.2 24.9001 114.4 24.6001 113.6 24.6001C111.8 24.6001 110 25.6001 110 27.4001C110 29.1001 111.5 30.2001 113.1 30.2001C114.4 30.2001 115 29.6001 115.5 29.0001H115.6V30.0001H117.4V25.2001C117.2 23.0001 115.5 21.7001 113.4 21.7001ZM113.2 28.6001C112.6 28.6001 111.7 28.3001 111.7 27.5001C111.7 26.5001 112.8 26.2001 113.7 26.2001C114.5 26.2001 114.9 26.4001 115.4 26.6001C115.2 27.8001 114.2 28.6001 113.2 28.6001ZM123.7 22.0001L121.6 27.4001H121.5L119.3 22.0001H117.3L120.6 29.6001L118.7 33.8001H120.6L125.7 22.0001H123.7ZM106.9 30.0001H108.8V17.5001H106.9V30.0001Z" fill="white"/>
<path d="M10.3999 7.5C10.0999 7.8 9.8999 8.3 9.8999 8.9V31C9.8999 31.6 10.0999 32.1 10.3999 32.4L10.4999 32.5L22.8999 20.1V19.9L10.3999 7.5Z" fill="url(#paint0_linear_8533_4592)"/>
<path d="M26.9999 24.2998L22.8999 20.1998V19.8998L26.9999 15.7998L27.0999 15.8998L31.9999 18.6998C33.3999 19.4998 33.3999 20.7998 31.9999 21.5998L26.9999 24.2998Z" fill="url(#paint1_linear_8533_4592)"/>
<path d="M27.0999 24.2L22.8999 20L10.3999 32.5C10.8999 33 11.5999 33 12.4999 32.6L27.0999 24.2Z" fill="url(#paint2_linear_8533_4592)"/>
<path d="M27.0999 15.7996L12.4999 7.49962C11.5999 6.99962 10.8999 7.09962 10.3999 7.59962L22.8999 19.9996L27.0999 15.7996Z" fill="url(#paint3_linear_8533_4592)"/>
<path opacity="0.2" d="M26.9999 24.1001L12.4999 32.3001C11.6999 32.8001 10.9999 32.7001 10.4999 32.3001L10.3999 32.4001L10.4999 32.5001C10.9999 32.9001 11.6999 33.0001 12.4999 32.5001L26.9999 24.1001Z" fill="black"/>
<path opacity="0.12" d="M10.4 32.3C10.1 32 10 31.5 10 30.9V31C10 31.6 10.2 32.1 10.5 32.4V32.3H10.4ZM32 21.3L27 24.1L27.1 24.2L32 21.4C32.7 21 33 20.5 33 20C33 20.5 32.6 20.9 32 21.3Z" fill="black"/>
<path opacity="0.25" d="M12.5 7.59988L32 18.6999C32.6 19.0999 33 19.4999 33 19.9999C33 19.4999 32.7 18.9999 32 18.5999L12.5 7.49988C11.1 6.69988 10 7.39988 10 8.99988V9.09988C10 7.49988 11.1 6.79988 12.5 7.59988Z" fill="white"/>
</g>
<defs>
<linearGradient id="paint0_linear_8533_4592" x1="805.908" y1="128.47" x2="-260.11" y2="1194.49" gradientUnits="userSpaceOnUse">
<stop stop-color="#00A0FF"/>
<stop offset="0.00657445" stop-color="#00A1FF"/>
<stop offset="0.2601" stop-color="#00BEFF"/>
<stop offset="0.5122" stop-color="#00D2FF"/>
<stop offset="0.7604" stop-color="#00DFFF"/>
<stop offset="1" stop-color="#00E3FF"/>
</linearGradient>
<linearGradient id="paint1_linear_8533_4592" x1="1116.34" y1="435.94" x2="-1303.35" y2="435.94" gradientUnits="userSpaceOnUse">
<stop stop-color="#FFE000"/>
<stop offset="0.4087" stop-color="#FFBD00"/>
<stop offset="0.7754" stop-color="#FFA500"/>
<stop offset="1" stop-color="#FF9C00"/>
</linearGradient>
<linearGradient id="paint2_linear_8533_4592" x1="1453.1" y1="417.351" x2="-362.588" y2="2233.04" gradientUnits="userSpaceOnUse">
<stop stop-color="#FF3A44"/>
<stop offset="1" stop-color="#C31162"/>
</linearGradient>
<linearGradient id="paint3_linear_8533_4592" x1="-299.87" y1="-142.699" x2="508.115" y2="665.278" gradientUnits="userSpaceOnUse">
<stop stop-color="#32A071"/>
<stop offset="0.0685" stop-color="#2DA771"/>
<stop offset="0.4762" stop-color="#15CF74"/>
<stop offset="0.8009" stop-color="#06E775"/>
<stop offset="1" stop-color="#00F076"/>
</linearGradient>
<clipPath id="clip0_8533_4592">
<rect width="135" height="40" fill="white"/>
</clipPath>
</defs>
</svg>
