<svg width="1440" height="445" viewBox="0 0 1440 445" fill="none" xmlns="http://www.w3.org/2000/svg">
<path d="M692.4 443.194C954.6 436.874 1206.96 407.465 1440 355.484V0H0V384.248C218.04 423.459 451.2 443.065 692.4 443.194Z" fill="url(#paint0_linear_8533_3907)"/>
<mask id="mask0_8533_3907" style="mask-type:luminance" maskUnits="userSpaceOnUse" x="0" y="3" width="1440" height="441">
<mask id="mask1_8533_3907" style="mask-type:luminance" maskUnits="userSpaceOnUse" x="0" y="3" width="1440" height="441">
<path d="M0 3H1440V444H0V3Z" fill="white"/>
</mask>
<g mask="url(#mask1_8533_3907)">
<path d="M692.4 443.194C954.6 436.874 1206.96 407.465 1440 355.484V0H0V384.248C218.04 423.459 451.2 443.065 692.4 443.194Z" fill="url(#paint1_linear_8533_3907)"/>
</g>
</mask>
<g mask="url(#mask0_8533_3907)">
<path d="M1440 122.383C1275 155.511 1100.64 173.481 921 175.981C587.04 170.981 271.08 113.164 0 3V446H1440V122.383Z" fill="#FEF3C7" fill-opacity="0.17"/>
<path d="M1440 446V66.7542C1365.96 55.0346 1292.16 47.5341 1218.6 44.4089C1093.68 50.3468 967.92 67.848 841.68 97.8501C570.24 163.324 316.92 282.707 87 446H1440Z" fill="#FEF3C7" fill-opacity="0.15"/>
<path d="M497.04 377.87C358.44 345.368 216.72 325.366 72.24 318.803C48.12 317.866 24 317.241 0 317.085V445.999H678.36C618.24 420.529 557.76 397.871 497.04 377.87Z" fill="black" fill-opacity="0.2"/>
<path d="M1440 445.998V188.951C1392.96 187.701 1345.56 188.013 1297.92 190.044C980.52 204.733 678.96 294.582 402.6 445.998H1440Z" fill="#141414" fill-opacity="0.15"/>
</g>
<defs>
<linearGradient id="paint0_linear_8533_3907" x1="720" y1="0" x2="720" y2="679.747" gradientUnits="userSpaceOnUse">
<stop stop-color="#141414"/>
<stop offset="1"/>
</linearGradient>
<linearGradient id="paint1_linear_8533_3907" x1="720" y1="0" x2="720" y2="443.194" gradientUnits="userSpaceOnUse">
<stop stop-color="#6A6A6A"/>
<stop offset="1" stop-color="#4D4D4D"/>
</linearGradient>
</defs>
</svg>
