<svg width="17" height="14" viewBox="0 0 17 14" fill="none" xmlns="http://www.w3.org/2000/svg">
<g id="address-card 1" clip-path="url(#clip0_8180_4552)">
<path id="Vector" d="M6.3125 7C7.2791 7 8.0625 6.2166 8.0625 5.25C8.0625 4.2834 7.2791 3.5 6.3125 3.5C5.3459 3.5 4.5625 4.2834 4.5625 5.25C4.5625 6.21523 5.34727 7 6.3125 7ZM13.3125 6.34375H10.6875C10.3252 6.34375 10.0312 6.6377 10.0312 7C10.0312 7.3623 10.3252 7.65625 10.6875 7.65625H13.3125C13.6748 7.65625 13.9688 7.3623 13.9688 7C13.9688 6.6377 13.6762 6.34375 13.3125 6.34375ZM7.1875 7.875H5.4375C4.22891 7.875 3.25 8.85391 3.25 10.0625C3.25 10.3031 3.44688 10.5 3.6875 10.5H8.9375C9.17911 10.5 9.375 10.3041 9.375 10.0625C9.375 8.85391 8.39609 7.875 7.1875 7.875ZM13.3125 4.15625H10.6875C10.3252 4.15625 10.0312 4.4502 10.0312 4.8125C10.0312 5.1748 10.3252 5.46875 10.6875 5.46875H13.3125C13.6748 5.46875 13.9688 5.1748 13.9688 4.8125C13.9688 4.4502 13.6762 4.15625 13.3125 4.15625ZM14.625 0.875H2.375C1.4084 0.875 0.625 1.6584 0.625 2.625V11.375C0.625 12.3416 1.4084 13.125 2.375 13.125H14.625C15.5916 13.125 16.375 12.3416 16.375 11.375V2.625C16.375 1.6584 15.5902 0.875 14.625 0.875ZM15.0625 11.375C15.0625 11.6162 14.8662 11.8125 14.625 11.8125H2.375C2.13377 11.8125 1.9375 11.6162 1.9375 11.375V2.625C1.9375 2.38377 2.13377 2.1875 2.375 2.1875H14.625C14.8662 2.1875 15.0625 2.38377 15.0625 2.625V11.375Z" fill="#71717A"/>
</g>
<defs>
<clipPath id="clip0_8180_4552">
<rect width="15.75" height="14" fill="white" transform="translate(0.625)"/>
</clipPath>
</defs>
</svg>
