<svg width="10" height="12" viewBox="0 0 10 12" fill="none" xmlns="http://www.w3.org/2000/svg">
<g id="ballot-check 1" clip-path="url(#clip0_8180_5172)">
<path id="Vector" d="M2.85714 7.85714H2.14286C1.94563 7.85714 1.78571 8.01705 1.78571 8.21429V8.92857C1.78571 9.125 1.94554 9.28572 2.14286 9.28572H2.85714C3.05438 9.28572 3.21429 9.1258 3.21429 8.92857V8.21429C3.21429 8.01786 3.05357 7.85714 2.85714 7.85714ZM2.14286 3.57143H2.85714C3.05438 3.57143 3.21429 3.41152 3.21429 3.21429V2.5C3.21429 2.30357 3.05357 2.14286 2.85714 2.14286H2.14286C1.94554 2.14286 1.78571 2.30357 1.78571 2.5V3.21429C1.78571 3.41071 1.94554 3.57143 2.14286 3.57143ZM7.67857 8.03572H4.46429C4.16853 8.03572 3.92857 8.27567 3.92857 8.57143C3.92857 8.86719 4.16853 9.10714 4.46429 9.10714H7.67857C7.97433 9.10714 8.21429 8.86719 8.21429 8.57143C8.21429 8.27567 7.97545 8.03572 7.67857 8.03572ZM3.82366 4.92634C3.68415 4.78683 3.45804 4.78683 3.31875 4.92634L2.5 5.74554L2.21674 5.46205C2.07723 5.32255 1.85112 5.32255 1.71183 5.46205C1.57254 5.60156 1.57232 5.82768 1.71183 5.96697L2.24754 6.50268C2.31696 6.57143 2.40848 6.60714 2.5 6.60714C2.59152 6.60714 2.68277 6.57228 2.75246 6.5025L3.82388 5.43107C3.96429 5.29241 3.96429 5.06473 3.82366 4.92634ZM7.67857 5.17857H5.17857C4.88393 5.17857 4.64286 5.41964 4.64286 5.71429C4.64286 6.00893 4.88281 6.25 5.17857 6.25H7.67857C7.97433 6.25 8.21429 6.01005 8.21429 5.71429C8.21429 5.41853 7.97545 5.17857 7.67857 5.17857ZM8.57143 0H1.42857C0.639509 0 0 0.639509 0 1.42857V10C0 10.7891 0.639509 11.4286 1.42857 11.4286H8.57143C9.36049 11.4286 10 10.7891 10 10V1.42857C10 0.639509 9.35938 0 8.57143 0ZM8.92857 10C8.92857 10.197 8.76835 10.3571 8.57143 10.3571H1.42857C1.23165 10.3571 1.07143 10.197 1.07143 10V1.42857C1.07143 1.23161 1.23165 1.07143 1.42857 1.07143H8.57143C8.76835 1.07143 8.92857 1.23161 8.92857 1.42857V10ZM7.67857 2.32143H4.46429C4.16964 2.32143 3.92857 2.5625 3.92857 2.85714C3.92857 3.15179 4.16853 3.39286 4.46429 3.39286H7.67857C7.97433 3.39286 8.21429 3.1529 8.21429 2.85714C8.21429 2.56138 7.97545 2.32143 7.67857 2.32143Z" fill="#FAFAFA"/>
</g>
<defs>
<clipPath id="clip0_8180_5172">
<rect width="10" height="11.4286" fill="white"/>
</clipPath>
</defs>
</svg>
