<svg width="30" height="30" viewBox="0 0 30 30" fill="none" xmlns="http://www.w3.org/2000/svg">
<path d="M6.17017 10.3501L15.0002 15.4601L23.7701 10.3801" stroke="#FF564F" stroke-width="1.5" stroke-linecap="round" stroke-linejoin="round"/>
<path d="M15.0002 24.5201V15.4501" stroke="#FF564F" stroke-width="1.5" stroke-linecap="round" stroke-linejoin="round"/>
<g filter="url(#filter0_d_8989_37)">
<path d="M12.9301 5.39003L7.59012 8.36007C6.38012 9.03007 5.39014 10.71 5.39014 12.09V17.7401C5.39014 19.1201 6.38012 20.8001 7.59012 21.4701L12.9301 24.4401C14.0701 25.0701 15.9401 25.0701 17.0801 24.4401L22.4201 21.4701C23.6301 20.8001 24.6201 19.1201 24.6201 17.7401V12.09C24.6201 10.71 23.6301 9.03007 22.4201 8.36007L17.0801 5.39003C15.9301 4.75003 14.0701 4.75003 12.9301 5.39003Z" stroke="#FF564F" stroke-width="1.5" stroke-linecap="round" stroke-linejoin="round" shape-rendering="crispEdges"/>
</g>
<path d="M20 16.15V12.4901L10.51 7.01001" stroke="#FF564F" stroke-width="1.5" stroke-linecap="round" stroke-linejoin="round"/>
<defs>
<filter id="filter0_d_8989_37" x="0.640137" y="0.160034" width="28.73" height="29.5026" filterUnits="userSpaceOnUse" color-interpolation-filters="sRGB">
<feFlood flood-opacity="0" result="BackgroundImageFix"/>
<feColorMatrix in="SourceAlpha" type="matrix" values="0 0 0 0 0 0 0 0 0 0 0 0 0 0 0 0 0 0 127 0" result="hardAlpha"/>
<feOffset/>
<feGaussianBlur stdDeviation="2"/>
<feComposite in2="hardAlpha" operator="out"/>
<feColorMatrix type="matrix" values="0 0 0 0 0.666667 0 0 0 0 0.12549 0 0 0 0 0.368627 0 0 0 1 0"/>
<feBlend mode="normal" in2="BackgroundImageFix" result="effect1_dropShadow_8989_37"/>
<feBlend mode="normal" in="SourceGraphic" in2="effect1_dropShadow_8989_37" result="shape"/>
</filter>
</defs>
</svg>
