<svg xmlns="http://www.w3.org/2000/svg" width="15" height="16" viewBox="0 0 15 16" fill="none">
  <g clip-path="url(#clip0_8231_535)">
    <path d="M7.625 1C8.45312 1 9.125 1.67156 9.125 2.5V13.5C9.125 14.3281 8.45312 15 7.625 15H6.625C5.79688 15 5.125 14.3281 5.125 13.5V2.5C5.125 1.67156 5.79688 1 6.625 1H7.625ZM7.625 2.5H6.625V13.5H7.625V2.5ZM2.625 7C3.45312 7 4.125 7.67187 4.125 8.5V13.5C4.125 14.3281 3.45312 15 2.625 15H1.625C0.796562 15 0.125 14.3281 0.125 13.5V8.5C0.125 7.67187 0.796562 7 1.625 7H2.625ZM2.625 8.5H1.625V13.5H2.625V8.5ZM10.125 4.5C10.125 3.67187 10.7969 3 11.625 3H12.625C13.4531 3 14.125 3.67187 14.125 4.5V13.5C14.125 14.3281 13.4531 15 12.625 15H11.625C10.7969 15 10.125 14.3281 10.125 13.5V4.5ZM11.625 13.5H12.625V4.5H11.625V13.5Z" fill="#71717A"/>
  </g>
  <defs>
    <clipPath id="clip0_8231_535">
      <rect width="14" height="16" fill="white" transform="translate(0.125)"/>
    </clipPath>
  </defs>
</svg>