<svg width="14" height="14" viewBox="0 0 14 14" fill="none" xmlns="http://www.w3.org/2000/svg">
<g id="clock-rotate-left 1" clip-path="url(#clip0_8172_1641)">
<path id="Vector" d="M7 0C10.8664 0 14 3.13359 14 7C14 10.8664 10.8664 14 7 14C5.57266 14 4.24375 13.5734 3.13633 12.8379C2.83555 12.6383 2.75352 12.2309 2.92852 11.9301C3.15273 11.6266 3.56016 11.5445 3.86367 11.7441C4.76055 12.3402 5.83789 12.6875 7 12.6875C10.1418 12.6875 12.6875 10.1418 12.6875 7C12.6875 3.8582 10.1418 1.3125 7 1.3125C4.9875 1.3125 3.21836 2.35812 2.20637 3.9375H3.71875C4.08242 3.9375 4.375 4.23008 4.375 4.59375C4.375 4.95742 4.08242 5.25 3.71875 5.25H0.65625C0.293945 5.25 0 4.95742 0 4.59375V1.53125C0 1.16895 0.293945 0.875 0.65625 0.875C1.01855 0.875 1.3125 1.16895 1.3125 1.53125V2.91758C2.58262 1.15172 4.65664 0 7 0ZM7 3.5C7.36367 3.5 7.65625 3.79258 7.65625 4.15625V6.7293L9.40898 8.50391C9.68789 8.76094 9.68789 9.17656 9.40898 9.40898C9.17656 9.68789 8.76094 9.68789 8.50391 9.40898L6.53516 7.44023C6.41211 7.3418 6.34375 7.175 6.34375 7V4.15625C6.34375 3.79258 6.63633 3.5 7 3.5Z" fill="#27272A"/>
</g>
<defs>
<clipPath id="clip0_8172_1641">
<rect width="14" height="14" fill="white"/>
</clipPath>
</defs>
</svg>
