<svg width="64" height="64" viewBox="0 0 64 64" fill="none" xmlns="http://www.w3.org/2000/svg">
<g id="DeKal">
<path id="Vector" opacity="0.2" d="M8.41491 53.3227L11.9798 64L36.4504 32L11.9798 0L8.24115 10.4456L24.496 31.9942L8.41491 53.3227Z" fill="#FF564F"/>
<path id="Vector_2" d="M60.5762 63.9942H48.9635L24.4871 31.9942L48.9635 0H60.5762L36.4444 31.9942L60.5762 63.9942Z" fill="#F08179"/>
<path id="Vector_3" d="M2.66672 0H11.9742V63.9942H2.66672V0Z" fill="#FF564F"/>
<g id="Group">
<path id="x30" d="M60.5854 63.9942H48.9726L24.4962 31.9942L48.9726 0H60.5854L36.4535 31.9942L60.5854 63.9942Z" fill="#FF564F"/>
</g>
<g id="Group_2">
<path id="x30  1" d="M60.5854 63.9942H48.9726L24.4962 31.9942L48.9726 0H60.5854L36.4535 31.9942L60.5854 63.9942Z" fill="#FF564F"/>
</g>
<g id="Group_3">
<path id="x30  2" d="M60.5854 63.9942H48.9726L24.4962 31.9942L48.9726 0H60.5854L36.4535 31.9942L60.5854 63.9942Z" fill="#FF564F"/>
</g>
<g id="Group_4">
<path id="x30  3" d="M60.5854 63.9942H48.9726L24.4962 31.9942L48.9726 0H60.5854L36.4535 31.9942L60.5854 63.9942Z" fill="#FF564F"/>
</g>
</g>
</svg>
