<svg width="16" height="15" viewBox="0 0 16 15" fill="none" xmlns="http://www.w3.org/2000/svg">
<g id="eye 1" clip-path="url(#clip0_8206_6996)">
<path id="Vector" d="M4.375 7.5C4.375 5.5668 5.9418 4 7.875 4C9.80821 4 11.375 5.5668 11.375 7.5C11.375 9.4332 9.80821 11 7.875 11C5.9418 11 4.375 9.4332 4.375 7.5ZM7.875 9.6875C9.0836 9.6875 10.0625 8.70859 10.0625 7.5C10.0625 6.29141 9.0836 5.3125 7.875 5.3125C7.85586 5.3125 7.83946 5.3125 7.79571 5.3125C7.85586 5.45195 7.875 5.59961 7.875 5.75C7.875 6.71523 7.09024 7.5 6.125 7.5C5.97461 7.5 5.82696 7.48086 5.6875 7.4207C5.6875 7.46445 5.6875 7.48086 5.6875 7.47539C5.6875 8.70859 6.66641 9.6875 7.875 9.6875ZM2.60914 3.57891C3.89649 2.38234 5.66563 1.375 7.875 1.375C10.0844 1.375 11.8535 2.38234 13.1414 3.57891C14.4211 4.76562 15.277 6.16289 15.6816 7.16367C15.7719 7.37969 15.7719 7.62031 15.6816 7.83633C15.277 8.8125 14.4211 10.2098 13.1414 11.4211C11.8535 12.6187 10.0844 13.625 7.875 13.625C5.66563 13.625 3.89649 12.6187 2.60914 11.4211C1.32946 10.2098 0.474144 8.8125 0.0672964 7.83633C-0.0224321 7.62031 -0.0224321 7.37969 0.0672964 7.16367C0.474144 6.16289 1.32946 4.76562 2.60914 3.57891ZM7.875 2.6875C6.09219 2.6875 4.62657 3.49688 3.50274 4.53867C2.45 5.51758 1.72321 6.65508 1.35188 7.5C1.72321 8.32031 2.45 9.48242 3.50274 10.4613C4.62657 11.5031 6.09219 12.3125 7.875 12.3125C9.65782 12.3125 11.1234 11.5031 12.2473 10.4613C13.3 9.48242 14.0027 8.32031 14.3992 7.5C14.0027 6.65508 13.3 5.51758 12.2473 4.53867C11.1234 3.49688 9.65782 2.6875 7.875 2.6875Z" fill="#71717A"/>
</g>
<defs>
<clipPath id="clip0_8206_6996">
<rect width="15.75" height="14" fill="white" transform="translate(0 0.5)"/>
</clipPath>
</defs>
</svg>
