<svg width="20" height="20" viewBox="0 0 20 20" fill="none" xmlns="http://www.w3.org/2000/svg">
<g clip-path="url(#clip0_8533_4541)">
<path d="M18.125 0H1.875C1.35417 0 0.911458 0.182291 0.546875 0.546875C0.182292 0.911459 0 1.35417 0 1.875V18.125C0 18.6458 0.182292 19.0885 0.546875 19.4531C0.911458 19.8177 1.35417 20 1.875 20H10V11.25H7.5V8.75H10V7.5C10 6.47135 10.3678 5.58919 11.1035 4.85352C11.8392 4.11784 12.7214 3.75 13.75 3.75H16.25V6.25H13.75C13.4115 6.25 13.1185 6.3737 12.8711 6.62109C12.6237 6.86849 12.5 7.16146 12.5 7.5V8.75H16.25L15.625 11.25H12.5V20H18.125C18.6458 20 19.0885 19.8177 19.4531 19.4531C19.8177 19.0885 20 18.6458 20 18.125V1.875C20 1.35417 19.8177 0.911459 19.4531 0.546875C19.0885 0.182291 18.6458 0 18.125 0Z" fill="#2A3546"/>
</g>
<defs>
<clipPath id="clip0_8533_4541">
<rect width="20" height="20" fill="white" transform="matrix(1 0 0 -1 0 20)"/>
</clipPath>
</defs>
</svg>
