<svg width="16" height="17" viewBox="0 0 16 17" fill="none" xmlns="http://www.w3.org/2000/svg">
<g id="Frame" clip-path="url(#clip0_8172_1647)">
<path id="Vector" d="M2 2.25C2 1.284 2.784 0.5 3.75 0.5H10.336C10.8 0.5 11.245 0.684 11.573 1.013L14.487 3.927C14.816 4.255 15 4.7 15 5.164V14.75C15 15.2141 14.8156 15.6592 14.4874 15.9874C14.1592 16.3156 13.7141 16.5 13.25 16.5H3.75C3.28587 16.5 2.84075 16.3156 2.51256 15.9874C2.18437 15.6592 2 15.2141 2 14.75V2.25ZM3.75 2C3.6837 2 3.62011 2.02634 3.57322 2.07322C3.52634 2.12011 3.5 2.1837 3.5 2.25V14.75C3.5 14.888 3.612 15 3.75 15H13.25C13.3163 15 13.3799 14.9737 13.4268 14.9268C13.4737 14.8799 13.5 14.8163 13.5 14.75V6.5H10.75C10.2859 6.5 9.84075 6.31563 9.51256 5.98744C9.18437 5.65925 9 5.21413 9 4.75V2H3.75ZM10.5 2.062V4.75C10.5 4.888 10.612 5 10.75 5H13.438L13.427 4.987L10.513 2.073L10.5 2.062Z" fill="#D4D4D8"/>
</g>
<defs>
<clipPath id="clip0_8172_1647">
<rect width="16" height="16" fill="white" transform="translate(0 0.5)"/>
</clipPath>
</defs>
</svg>
