<svg width="32" height="32" viewBox="0 0 32 32" fill="none" xmlns="http://www.w3.org/2000/svg">
<g id="Frame" clip-path="url(#clip0_7908_3976)">
<path id="Vector" d="M16 3C19.4478 3 22.7544 4.36964 25.1924 6.80761C27.6304 9.24558 29 12.5522 29 16C29 19.4478 27.6304 22.7544 25.1924 25.1924C22.7544 27.6304 19.4478 29 16 29C12.5522 29 9.24558 27.6304 6.80761 25.1924C4.36964 22.7544 3 19.4478 3 16C3 12.5522 4.36964 9.24558 6.80761 6.80761C9.24558 4.36964 12.5522 3 16 3ZM16 32C20.2435 32 24.3131 30.3143 27.3137 27.3137C30.3143 24.3131 32 20.2435 32 16C32 11.7565 30.3143 7.68687 27.3137 4.68629C24.3131 1.68571 20.2435 0 16 0C11.7565 0 7.68687 1.68571 4.68629 4.68629C1.68571 7.68687 0 11.7565 0 16C0 20.2435 1.68571 24.3131 4.68629 27.3137C7.68687 30.3143 11.7565 32 16 32ZM23.0625 13.0625C23.65 12.475 23.65 11.525 23.0625 10.9438C22.475 10.3625 21.525 10.3563 20.9438 10.9438L14.0063 17.8813L11.0688 14.9438C10.4813 14.3563 9.53125 14.3563 8.95 14.9438C8.36875 15.5312 8.3625 16.4813 8.95 17.0625L12.95 21.0625C13.5375 21.65 14.4875 21.65 15.0688 21.0625L23.0625 13.0625Z" fill="url(#paint0_linear_7908_3976)"/>
</g>
<defs>
<linearGradient id="paint0_linear_7908_3976" x1="0" y1="16" x2="32" y2="16" gradientUnits="userSpaceOnUse">
<stop stop-color="#893835"/>
<stop offset="1" stop-color="#FF564F"/>
</linearGradient>
<clipPath id="clip0_7908_3976">
<rect width="32" height="32" fill="white"/>
</clipPath>
</defs>
</svg>
