<svg width="16" height="16" viewBox="0 0 16 16" fill="none" xmlns="http://www.w3.org/2000/svg">
<g id="gear 1" clip-path="url(#clip0_8180_4641)">
<path id="Vector" d="M4.99995 8C4.99995 6.31563 6.31557 5 7.99995 5C9.6562 5 10.9999 6.31563 10.9999 8C10.9999 9.65625 9.6562 11 7.99995 11C6.31557 11 4.99995 9.65625 4.99995 8ZM7.99995 6.5C7.17182 6.5 6.49995 7.17188 6.49995 8C6.49995 8.82812 7.17182 9.5 7.99995 9.5C8.82807 9.5 9.49995 8.82812 9.49995 8C9.49995 7.17188 8.82807 6.5 7.99995 6.5ZM9.15932 9.375e-06C9.85307 9.375e-06 10.4562 0.474688 10.6187 1.14813L10.8624 2.16281C11.1281 2.2925 11.3812 2.43969 11.6218 2.6025L12.6249 2.30719C13.2906 2.11125 14.0031 2.39594 14.3499 2.99594L15.5093 5.00313C15.8531 5.60313 15.7437 6.3625 15.2437 6.84062L14.4843 7.53438C14.4937 7.70625 14.4999 7.85313 14.4999 8C14.4999 8.14688 14.4937 8.29375 14.4843 8.4375L15.2437 9.15938C15.7437 9.6375 15.8531 10.3969 15.5093 10.9969L14.3499 13.0031C14.0031 13.6031 13.2906 13.8875 12.6249 13.6938L11.6218 13.3969C11.3812 13.5594 11.1281 13.7062 10.8624 13.8375L10.6187 14.8531C10.4562 15.525 9.85307 16 9.15932 16H6.84057C6.14682 16 5.5437 15.525 5.3812 14.8531L5.13745 13.8375C4.87182 13.7062 4.6187 13.5594 4.37807 13.3969L3.34682 13.6938C2.71026 13.8875 1.99807 13.6031 1.65151 13.0031L0.492133 10.9969C0.145571 10.3969 0.255196 9.6375 0.757133 9.15938L1.51463 8.4375C1.50495 8.29375 1.49995 8.14688 1.49995 7.97188C1.49995 7.85313 1.50495 7.70625 1.51463 7.53438L0.757133 6.84062C0.255165 6.3625 0.145571 5.60313 0.492133 5.00313L1.65151 2.99594C1.99807 2.39594 2.71026 2.11125 3.34682 2.30719L4.37807 2.6025C4.6187 2.43969 4.87182 2.2925 5.13745 2.16281L5.3812 1.14813C5.5437 0.474375 6.14682 0 6.84057 0L9.15932 9.375e-06ZM6.42182 3.2375L6.07182 3.38438C5.67495 3.55 5.3062 3.76562 4.97182 4.02187L4.6687 4.25313L2.95057 3.74688L1.79088 5.75313L3.08776 6.9875L3.03995 7.3625C3.0137 7.57188 2.99995 7.78438 2.99995 8C2.99995 8.21562 3.0137 8.42812 3.03995 8.6375L3.08776 9.0125L1.7912 10.2469L2.95057 12.2531L4.6687 11.7469L4.97182 11.9781C5.3062 12.2344 5.67495 12.45 6.07182 12.6156L6.42182 12.7625L6.84057 14.5H9.15932L9.57807 12.7625L9.92807 12.6156C10.3249 12.45 10.6937 12.2344 11.0281 11.9781L11.3312 11.7469L13.0499 12.2531L14.2093 10.2469L12.9124 9.0125L12.9593 8.6375C12.9874 8.42812 12.9999 8.21562 12.9999 8C12.9999 7.78438 12.9874 7.57188 12.9593 7.3625L12.9124 6.9875L14.2093 5.75313L13.0499 3.74688L11.3312 4.25313L11.0281 4.02187C10.6937 3.76562 10.3249 3.55 9.92807 3.38438L9.57807 3.2375L9.15932 1.5H6.84057L6.42182 3.2375Z" fill="#27272A"/>
</g>
<defs>
<clipPath id="clip0_8180_4641">
<rect width="16" height="16" fill="white"/>
</clipPath>
</defs>
</svg>
