<svg width="15" height="14" viewBox="0 0 15 14" fill="none" xmlns="http://www.w3.org/2000/svg">
<g id="house 1" clip-path="url(#clip0_8180_4528)">
<path id="Vector" d="M14.4184 6.36082C14.6639 6.56985 14.6955 6.93686 14.4865 7.18235C14.2774 7.42783 13.9104 7.45943 13.6649 7.2504L13.0694 6.74485V11.2778C13.0694 12.3521 12.1993 13.2223 11.125 13.2223H4.125C3.05118 13.2223 2.18055 12.3521 2.18055 11.2778V6.74485L1.5858 7.2504C1.34007 7.45943 0.972082 7.42783 0.763541 7.18235C0.555121 6.93686 0.585284 6.56985 0.83094 6.36082L7.24826 0.916374C7.46458 0.731651 7.78542 0.731651 8.00174 0.916374L14.4184 6.36082ZM4.125 12.0556H5.29167V8.36117C5.29167 7.82401 5.72674 7.38894 6.26389 7.38894H8.98611C9.52326 7.38894 9.95833 7.82401 9.95833 8.36117V12.0556H11.125C11.5552 12.0556 11.9028 11.708 11.9028 11.2778V5.75561L7.625 2.12606L3.34722 5.75561V11.2778C3.34722 11.708 3.69479 12.0556 4.125 12.0556ZM6.45833 12.0556H8.79167V8.55561H6.45833V12.0556Z" fill="#EF4444"/>
</g>
<defs>
<clipPath id="clip0_8180_4528">
<rect width="14" height="12.4444" fill="white" transform="translate(0.625 0.777832)"/>
</clipPath>
</defs>
</svg>
