<svg width="14" height="13" viewBox="0 0 14 13" fill="none" xmlns="http://www.w3.org/2000/svg">
<g id="house 1" clip-path="url(#clip0_8187_5696)">
<path id="Vector" d="M13.7934 5.86082C14.0389 6.06985 14.0705 6.43686 13.8615 6.68235C13.6524 6.92783 13.2854 6.95943 13.0399 6.7504L12.4444 6.24485V10.7778C12.4444 11.8521 11.5743 12.7223 10.5 12.7223H3.5C2.42618 12.7223 1.55555 11.8521 1.55555 10.7778V6.24485L0.960798 6.7504C0.715068 6.95943 0.347082 6.92783 0.138541 6.68235C-0.0698795 6.43686 -0.0397163 6.06985 0.20594 5.86082L6.62326 0.416374C6.83958 0.231651 7.16042 0.231651 7.37674 0.416374L13.7934 5.86082ZM3.5 11.5556H4.66667V7.86117C4.66667 7.32401 5.10174 6.88894 5.63889 6.88894H8.36111C8.89826 6.88894 9.33333 7.32401 9.33333 7.86117V11.5556H10.5C10.9302 11.5556 11.2778 11.208 11.2778 10.7778V5.25561L7 1.62606L2.72222 5.25561V10.7778C2.72222 11.208 3.06979 11.5556 3.5 11.5556ZM5.83333 11.5556H8.16667V8.05561H5.83333V11.5556Z" fill="#3F3F46"/>
</g>
<defs>
<clipPath id="clip0_8187_5696">
<rect width="14" height="12.4444" fill="white" transform="translate(0 0.277832)"/>
</clipPath>
</defs>
</svg>
