<svg width="16" height="16" viewBox="0 0 16 16" fill="none" xmlns="http://www.w3.org/2000/svg">
<rect x="0.5" y="0.5" width="15" height="15" rx="7.5" stroke="#E4E4E7"/>
<g clip-path="url(#clip0_8937_3183)">
<path opacity="0.2" d="M5.05199 10.6653L5.4976 12L8.55643 8L5.4976 4L5.03027 5.3057L7.06213 7.99928L5.05199 10.6653Z" fill="#FF564F"/>
<path d="M11.5722 11.9993H10.1206L7.06104 7.99928L10.1206 4H11.5722L8.5557 7.99928L11.5722 11.9993Z" fill="#F08179"/>
<path d="M4.3335 4H5.49693V11.9993H4.3335V4Z" fill="#FF564F"/>
<path d="M11.5732 11.9993H10.1216L7.06201 7.99928L10.1216 4H11.5732L8.55668 7.99928L11.5732 11.9993Z" fill="#FF564F"/>
<path d="M11.5732 11.9993H10.1216L7.06201 7.99928L10.1216 4H11.5732L8.55668 7.99928L11.5732 11.9993Z" fill="#FF564F"/>
<path d="M11.5732 11.9993H10.1216L7.06201 7.99928L10.1216 4H11.5732L8.55668 7.99928L11.5732 11.9993Z" fill="#FF564F"/>
<path d="M11.5732 11.9993H10.1216L7.06201 7.99928L10.1216 4H11.5732L8.55668 7.99928L11.5732 11.9993Z" fill="#FF564F"/>
</g>
<defs>
<clipPath id="clip0_8937_3183">
<rect width="8" height="8" fill="white" transform="translate(4 4)"/>
</clipPath>
</defs>
</svg>
