<svg width="20" height="20" viewBox="0 0 20 20" fill="none" xmlns="http://www.w3.org/2000/svg">
<g clip-path="url(#clip0_8533_4557)">
<path d="M18.125 0H1.875C1.35417 0 0.911458 0.182291 0.546875 0.546875C0.182292 0.911459 0 1.35417 0 1.875V18.125C0 18.6458 0.182292 19.0885 0.546875 19.4531C0.911458 19.8177 1.35417 20 1.875 20H18.125C18.6458 20 19.0885 19.8177 19.4531 19.4531C19.8177 19.0885 20 18.6458 20 18.125V1.875C20 1.35417 19.8177 0.911459 19.4531 0.546875C19.0885 0.182291 18.6458 0 18.125 0ZM7.5 16.25H5V7.5H7.5V16.25ZM6.25 6.25C5.89844 6.25 5.60221 6.12956 5.36133 5.88867C5.12044 5.64779 5 5.35156 5 5C5 4.64844 5.12044 4.35221 5.36133 4.11133C5.60221 3.87044 5.89844 3.75 6.25 3.75C6.60156 3.75 6.89779 3.87044 7.13867 4.11133C7.37956 4.35221 7.5 4.64844 7.5 5C7.5 5.35156 7.37956 5.64779 7.13867 5.88867C6.89779 6.12956 6.60156 6.25 6.25 6.25ZM16.25 16.25H13.75V11.25C13.75 10.8984 13.6296 10.6022 13.3887 10.3613C13.1478 10.1204 12.8516 10 12.5 10C12.1484 10 11.8522 10.1204 11.6113 10.3613C11.3704 10.6022 11.25 10.8984 11.25 11.25V16.25H8.75V7.5H11.25V9.04297C11.5104 8.69141 11.8294 8.34635 12.207 8.00781C12.5846 7.66927 12.9948 7.5 13.4375 7.5C14.2188 7.5 14.8828 7.80599 15.4297 8.41797C15.9766 9.02995 16.25 9.76562 16.25 10.625V16.25Z" fill="#2A3546"/>
</g>
<defs>
<clipPath id="clip0_8533_4557">
<rect width="20" height="20" fill="white" transform="matrix(1 0 0 -1 0 20)"/>
</clipPath>
</defs>
</svg>
