<svg width="20" height="20" viewBox="0 0 20 20" fill="none" xmlns="http://www.w3.org/2000/svg">
<g clip-path="url(#clip0_8533_4561)">
<path d="M10 0C8.64583 0 7.75391 0.00325584 7.32422 0.00976562C6.89453 0.0162754 6.41276 0.0325527 5.87891 0.0585938C5.34505 0.0846348 4.88607 0.136719 4.50195 0.214844C4.11784 0.292969 3.76953 0.397135 3.45703 0.527344C3.11849 0.657553 2.80599 0.813803 2.51953 0.996094C2.23307 1.17838 1.95312 1.40625 1.67969 1.67969C1.40625 1.95312 1.17839 2.23307 0.996094 2.51953C0.813802 2.80599 0.657552 3.11849 0.527344 3.45703C0.397135 3.76953 0.292969 4.11784 0.214844 4.50195C0.136719 4.88607 0.0846354 5.34505 0.0585938 5.87891C0.0325521 6.41276 0.016276 6.89453 0.00976562 7.32422C0.00325521 7.75391 0 8.64583 0 10C0 11.3542 0.00325521 12.2461 0.00976562 12.6758C0.016276 13.1055 0.0325521 13.5872 0.0585938 14.1211C0.0846354 14.6549 0.136719 15.1139 0.214844 15.498C0.292969 15.8822 0.397135 16.2305 0.527344 16.543C0.657552 16.8815 0.813802 17.194 0.996094 17.4805C1.17839 17.7669 1.40625 18.0469 1.67969 18.3203C1.95312 18.5938 2.23307 18.8216 2.51953 19.0039C2.80599 19.1862 3.11849 19.3424 3.45703 19.4727C3.76953 19.6029 4.11784 19.707 4.50195 19.7852C4.88607 19.8633 5.34505 19.9154 5.87891 19.9414C6.41276 19.9674 6.89453 19.9837 7.32422 19.9902C7.75391 19.9967 8.64583 20 10 20C11.3542 20 12.2461 19.9967 12.6758 19.9902C13.1055 19.9837 13.5872 19.9674 14.1211 19.9414C14.6549 19.9154 15.1139 19.8633 15.498 19.7852C15.8822 19.707 16.2305 19.6029 16.543 19.4727C16.8815 19.3424 17.194 19.1862 17.4805 19.0039C17.7669 18.8216 18.0469 18.5938 18.3203 18.3203C18.5938 18.0469 18.8216 17.7669 19.0039 17.4805C19.1862 17.194 19.3424 16.8815 19.4727 16.543C19.6029 16.2305 19.707 15.8822 19.7852 15.498C19.8633 15.1139 19.9154 14.6549 19.9414 14.1211C19.9674 13.5872 19.9837 13.1055 19.9902 12.6758C19.9967 12.2461 20 11.3542 20 10C20 8.64583 19.9967 7.75391 19.9902 7.32422C19.9837 6.89453 19.9674 6.41276 19.9414 5.87891C19.9154 5.34505 19.8633 4.88607 19.7852 4.50195C19.707 4.11784 19.6029 3.76953 19.4727 3.45703C19.3424 3.11849 19.1862 2.80599 19.0039 2.51953C18.8216 2.23307 18.5938 1.95312 18.3203 1.67969C18.0469 1.40625 17.7669 1.17838 17.4805 0.996094C17.194 0.813803 16.8815 0.657553 16.543 0.527344C16.2305 0.397135 15.8822 0.292969 15.498 0.214844C15.1139 0.136719 14.6549 0.0846348 14.1211 0.0585938C13.5872 0.0325527 13.1055 0.0162754 12.6758 0.00976562C12.2461 0.00325584 11.3542 0 10 0ZM10 1.79688C11.3281 1.79688 12.2005 1.80013 12.6172 1.80664C13.0339 1.81315 13.5091 1.82943 14.043 1.85547C14.5247 1.88151 14.9089 1.93034 15.1953 2.00195C15.4818 2.07357 15.7161 2.14193 15.8984 2.20703C16.1328 2.29818 16.3379 2.40234 16.5137 2.51953C16.6895 2.63672 16.8685 2.77995 17.0508 2.94922C17.2201 3.13151 17.3633 3.31055 17.4805 3.48633C17.5977 3.66211 17.7018 3.86719 17.793 4.10156C17.8581 4.28385 17.9264 4.51823 17.998 4.80469C18.0697 5.09115 18.1185 5.47526 18.1445 5.95703C18.1706 6.49089 18.1868 6.96289 18.1934 7.37305C18.1999 7.7832 18.2031 8.65885 18.2031 10C18.2031 11.3411 18.1966 12.2168 18.1836 12.627C18.1706 13.0371 18.1576 13.5091 18.1445 14.043C18.1185 14.5247 18.0697 14.9089 17.998 15.1953C17.9264 15.4818 17.8581 15.7161 17.793 15.8984C17.6888 16.1328 17.5814 16.3379 17.4707 16.5137C17.36 16.6895 17.2135 16.8685 17.0312 17.0508C16.862 17.2201 16.6862 17.3633 16.5039 17.4805C16.3216 17.5977 16.1133 17.7018 15.8789 17.793C15.7096 17.8581 15.4785 17.9264 15.1855 17.998C14.8926 18.0697 14.5052 18.1185 14.0234 18.1445C13.4896 18.1706 13.0143 18.1868 12.5977 18.1934C12.181 18.1999 11.3086 18.2031 9.98047 18.2031C8.63932 18.2031 7.76042 18.1966 7.34375 18.1836C6.92708 18.1706 6.45182 18.1576 5.91797 18.1445C5.4362 18.1185 5.04883 18.0697 4.75586 17.998C4.46289 17.9264 4.23177 17.8581 4.0625 17.793C3.82812 17.6888 3.62305 17.5814 3.44727 17.4707C3.27148 17.36 3.09245 17.2135 2.91016 17.0312C2.74089 16.862 2.5944 16.6862 2.4707 16.5039C2.34701 16.3216 2.24609 16.1133 2.16797 15.8789C2.08984 15.7096 2.01823 15.4785 1.95312 15.1855C1.88802 14.8926 1.84245 14.5052 1.81641 14.0234C1.79036 13.5026 1.77409 13.0339 1.76758 12.6172C1.76107 12.2005 1.75781 11.3216 1.75781 9.98047C1.75781 8.65234 1.76107 7.77995 1.76758 7.36328C1.77409 6.94661 1.79036 6.47135 1.81641 5.9375C1.84245 5.45573 1.88802 5.06836 1.95312 4.77539C2.01823 4.48242 2.08984 4.2513 2.16797 4.08203C2.24609 3.83463 2.34701 3.62305 2.4707 3.44727C2.5944 3.27148 2.74089 3.09896 2.91016 2.92969C3.09245 2.7474 3.27148 2.59766 3.44727 2.48047C3.62305 2.36328 3.82812 2.25912 4.0625 2.16797C4.23177 2.10287 4.45964 2.03451 4.74609 1.96289C5.03255 1.89128 5.42318 1.84245 5.91797 1.81641C6.45182 1.80338 6.92383 1.79362 7.33398 1.78711C7.74414 1.7806 8.61979 1.77734 9.96094 1.77734L10 1.79688ZM10 4.86328C9.29688 4.86328 8.63281 5 8.00781 5.27344C7.38281 5.53385 6.83594 5.89844 6.36719 6.36719C5.89844 6.83594 5.53385 7.38281 5.27344 8.00781C5 8.63281 4.86328 9.29688 4.86328 10C4.86328 10.7031 5 11.3672 5.27344 11.9922C5.53385 12.6172 5.89844 13.1641 6.36719 13.6328C6.83594 14.1016 7.38281 14.4661 8.00781 14.7266C8.63281 15 9.29688 15.1367 10 15.1367C10.7031 15.1367 11.3672 15 11.9922 14.7266C12.6172 14.4661 13.1641 14.1016 13.6328 13.6328C14.1016 13.1641 14.4661 12.6172 14.7266 11.9922C15 11.3672 15.1367 10.7031 15.1367 10C15.1367 9.29688 15 8.63281 14.7266 8.00781C14.4661 7.38281 14.1016 6.83594 13.6328 6.36719C13.1641 5.89844 12.6172 5.53385 11.9922 5.27344C11.3672 5 10.7031 4.86328 10 4.86328ZM10 13.3398C9.07552 13.3398 8.28776 13.0143 7.63672 12.3633C6.98568 11.7122 6.66016 10.9245 6.66016 10C6.66016 9.07552 6.98568 8.28776 7.63672 7.63672C8.28776 6.98568 9.07552 6.66016 10 6.66016C10.9245 6.66016 11.7122 6.98568 12.3633 7.63672C13.0143 8.28776 13.3398 9.07552 13.3398 10C13.3398 10.9245 13.0143 11.7122 12.3633 12.3633C11.7122 13.0143 10.9245 13.3398 10 13.3398ZM16.543 4.66797C16.543 4.99349 16.4258 5.27344 16.1914 5.50781C15.957 5.74219 15.6706 5.85938 15.332 5.85938C15.0065 5.85938 14.7266 5.74219 14.4922 5.50781C14.2578 5.27344 14.1406 4.99349 14.1406 4.66797C14.1406 4.32943 14.2578 4.04297 14.4922 3.80859C14.7266 3.57422 15.0065 3.45703 15.332 3.45703C15.6706 3.45703 15.957 3.57422 16.1914 3.80859C16.4258 4.04297 16.543 4.32943 16.543 4.66797Z" fill="#2A3546"/>
</g>
<defs>
<clipPath id="clip0_8533_4561">
<rect width="20" height="20" fill="white" transform="matrix(1 0 0 -1 0 20)"/>
</clipPath>
</defs>
</svg>
