<svg width="10" height="10" viewBox="0 0 10 10" fill="none" xmlns="http://www.w3.org/2000/svg">
<g id="layer-group 1" clip-path="url(#clip0_8187_5330)">
<path id="Vector" d="M4.51562 0.0994531C4.66797 0.0338281 4.83398 0 5 0C5.16602 0 5.31445 0.0338281 5.48438 0.0994531L9.57227 1.85137C9.83203 1.96289 10 2.2168 10 2.5C10 2.7832 9.83203 3.03711 9.57227 3.14844L5.48438 4.90039C5.31445 4.9668 5.16602 5 5 5C4.83398 5 4.66797 4.9668 4.51562 4.90039L0.427734 3.14844C0.168242 3.03711 0 2.7832 0 2.5C0 2.2168 0.168242 1.96289 0.427734 1.85137L4.51562 0.0994531ZM5 0.9375C4.94336 0.9375 4.9043 0.945508 4.88477 0.961133L1.29414 2.5L4.88477 4.03906C4.9043 4.05469 4.94336 4.0625 5 4.0625C5.03906 4.0625 5.07812 4.05469 5.11523 4.03906L8.70508 2.5L5.11523 0.961133C5.07812 0.945508 5.03906 0.9375 5 0.9375ZM4.88477 6.53906C4.9043 6.55469 4.94336 6.5625 5 6.5625C5.03906 6.5625 5.07812 6.55469 5.11523 6.53906L8.82812 4.94727C8.73828 4.8125 8.7207 4.63281 8.79883 4.47852C8.91602 4.24609 9.19727 4.15234 9.42773 4.26758L9.60547 4.35742C9.84766 4.47852 10 4.72461 10 4.99414C10 5.28125 9.83008 5.53906 9.56836 5.65039L5.48438 7.40039C5.31445 7.4668 5.16602 7.5 5 7.5C4.83398 7.5 4.66797 7.4668 4.51562 7.40039L0.445508 5.65625C0.175215 5.54102 1.17188e-05 5.27539 1.17188e-05 4.98047C1.17188e-05 4.74414 0.114629 4.52148 0.307813 4.38281L0.508789 4.23828C0.719531 4.08789 1.0123 4.13672 1.1627 4.34766C1.29199 4.5293 1.27422 4.77148 1.11523 4.93164L4.88477 6.53906ZM1.1627 6.84766C1.29199 7.0293 1.27422 7.27148 1.11523 7.43164L4.88477 9.03906C4.9043 9.05469 4.94336 9.0625 5 9.0625C5.03906 9.0625 5.07812 9.05469 5.11523 9.03906L8.82812 7.44727C8.73828 7.3125 8.7207 7.13281 8.79883 6.97852C8.91602 6.74609 9.19727 6.65234 9.42773 6.76758L9.60547 6.85742C9.84766 6.97852 10 7.22461 10 7.49414C10 7.78125 9.83008 8.03906 9.56836 8.15039L5.48438 9.90039C5.31445 9.9668 5.16602 10 5 10C4.83398 10 4.66797 9.9668 4.51562 9.90039L0.445508 8.15625C0.175215 8.04102 1.95313e-05 7.77539 1.95313e-05 7.48047C1.95313e-05 7.24414 0.114648 7.02148 0.307813 6.88281L0.508789 6.73828C0.719531 6.58789 1.0123 6.63672 1.1627 6.84766Z" fill="#FAFAFA"/>
</g>
<defs>
<clipPath id="clip0_8187_5330">
<rect width="10" height="10" fill="white"/>
</clipPath>
</defs>
</svg>
