<svg width="15" height="14" viewBox="0 0 15 14" fill="none" xmlns="http://www.w3.org/2000/svg">
<g id="layer-group 1" clip-path="url(#clip0_8180_4532)">
<path id="Vector" d="M6.94688 0.139234C7.16016 0.0473594 7.39258 0 7.625 0C7.85742 0 8.06523 0.0473594 8.30312 0.139234L14.0262 2.59191C14.3898 2.74805 14.625 3.10352 14.625 3.5C14.625 3.89648 14.3898 4.25195 14.0262 4.40781L8.30312 6.86055C8.06523 6.95352 7.85742 7 7.625 7C7.39258 7 7.16016 6.95352 6.94688 6.86055L1.22383 4.40781C0.860539 4.25195 0.625 3.89648 0.625 3.5C0.625 3.10352 0.860539 2.74805 1.22383 2.59191L6.94688 0.139234ZM7.625 1.3125C7.5457 1.3125 7.49102 1.32371 7.46367 1.34559L2.4368 3.5L7.46367 5.65469C7.49102 5.67656 7.5457 5.6875 7.625 5.6875C7.67969 5.6875 7.73438 5.67656 7.78633 5.65469L12.8121 3.5L7.78633 1.34559C7.73438 1.32371 7.67969 1.3125 7.625 1.3125ZM7.46367 9.15469C7.49102 9.17656 7.5457 9.1875 7.625 9.1875C7.67969 9.1875 7.73438 9.17656 7.78633 9.15469L12.9844 6.92617C12.8586 6.7375 12.834 6.48594 12.9434 6.26992C13.1074 5.94453 13.5012 5.81328 13.8238 5.97461L14.0727 6.10039C14.4117 6.26992 14.625 6.61445 14.625 6.9918C14.625 7.39375 14.3871 7.75469 14.0207 7.91055L8.30312 10.3605C8.06523 10.4535 7.85742 10.5 7.625 10.5C7.39258 10.5 7.16016 10.4535 6.94688 10.3605L1.24871 7.91875C0.870301 7.75742 0.625016 7.38555 0.625016 6.97266C0.625016 6.6418 0.78548 6.33008 1.05594 6.13594L1.3373 5.93359C1.63234 5.72305 2.04223 5.79141 2.25277 6.08672C2.43379 6.34102 2.40891 6.68008 2.18633 6.9043L7.46367 9.15469ZM2.25277 9.58672C2.43379 9.84102 2.40891 10.1801 2.18633 10.4043L7.46367 12.6547C7.49102 12.6766 7.5457 12.6875 7.625 12.6875C7.67969 12.6875 7.73438 12.6766 7.78633 12.6547L12.9844 10.4262C12.8586 10.2375 12.834 9.98594 12.9434 9.76992C13.1074 9.44453 13.5012 9.31328 13.8238 9.47461L14.0727 9.60039C14.4117 9.76992 14.625 10.1145 14.625 10.4918C14.625 10.8938 14.3871 11.2547 14.0207 11.4105L8.30312 13.8605C8.06523 13.9535 7.85742 14 7.625 14C7.39258 14 7.16016 13.9535 6.94688 13.8605L1.24871 11.4187C0.870301 11.2574 0.625027 10.8855 0.625027 10.4727C0.625027 10.1418 0.785508 9.83008 1.05594 9.63594L1.3373 9.43359C1.63234 9.22305 2.04223 9.29141 2.25277 9.58672Z" fill="#71717A"/>
</g>
<defs>
<clipPath id="clip0_8180_4532">
<rect width="14" height="14" fill="white" transform="translate(0.625)"/>
</clipPath>
</defs>
</svg>
