<svg width="14" height="14" viewBox="0 0 14 14" fill="none" xmlns="http://www.w3.org/2000/svg">
<g id="magnifying-glass 1" clip-path="url(#clip0_8206_8480)">
<path id="Vector" d="M13.784 12.8789L10.1199 9.21484C10.9129 8.24414 11.3504 7.02187 11.3504 5.6875C11.3504 2.5457 8.80387 0 5.6629 0C2.52192 0 0 2.54652 0 5.6875C0 8.82848 2.54626 11.375 5.6629 11.375C6.997 11.375 8.2209 10.9126 9.19024 10.1434L12.8543 13.8075C13.0074 13.9371 13.177 14 13.3438 14C13.5106 14 13.6795 13.9359 13.8078 13.8077C14.0629 13.5516 14.0629 13.1359 13.784 12.8789ZM1.31251 5.6875C1.31251 3.27523 3.27524 1.3125 5.68751 1.3125C8.09977 1.3125 10.0625 3.27523 10.0625 5.6875C10.0625 8.09977 8.09977 10.0625 5.68751 10.0625C3.27524 10.0625 1.31251 8.09922 1.31251 5.6875Z" fill="white"/>
</g>
<defs>
<clipPath id="clip0_8206_8480">
<rect width="14" height="14" fill="white"/>
</clipPath>
</defs>
</svg>
