<svg xmlns="http://www.w3.org/2000/svg" width="13" height="12" viewBox="0 0 13 12" fill="none">
  <g clip-path="url(#clip0_8732_4389)">
    <path d="M4.33301 5.8335C4.33301 4.71058 5.21009 3.8335 6.33301 3.8335C7.43717 3.8335 8.33301 4.71058 8.33301 5.8335C8.33301 6.93766 7.43717 7.8335 6.33301 7.8335C5.21009 7.8335 4.33301 6.93766 4.33301 5.8335ZM0.333008 3.16683C0.333008 2.43037 0.929883 1.8335 1.66634 1.8335H10.9997C11.7351 1.8335 12.333 2.43037 12.333 3.16683V8.50016C12.333 9.23558 11.7351 9.8335 10.9997 9.8335H1.66634C0.929883 9.8335 0.333008 9.23558 0.333008 8.50016V3.16683ZM1.33301 4.16683V7.50016C2.06947 7.50016 2.66634 8.09808 2.66634 8.8335H9.99967C9.99967 8.09808 10.5976 7.50016 11.333 7.50016V4.16683C10.5976 4.16683 9.99967 3.56891 9.99967 2.8335H2.66634C2.66634 3.56891 2.06947 4.16683 1.33301 4.16683Z" fill="#FAFAFA"/>
  </g>
  <defs>
    <clipPath id="clip0_8732_4389">
      <rect width="12" height="10.6667" fill="white" transform="translate(0.333008 0.5)"/>
    </clipPath>
  </defs>
</svg>