<svg width="20" height="20" viewBox="0 0 20 20" fill="none" xmlns="http://www.w3.org/2000/svg">
<path d="M8.67188 1.32812C7.47396 1.32812 6.34766 1.55599 5.29297 2.01172C4.2513 2.46745 3.33659 3.08919 2.54883 3.87695C1.76107 4.66471 1.13932 5.57943 0.683594 6.62109C0.227865 7.67578 0 8.80208 0 10C0 10.9115 0.136719 11.7904 0.410156 12.6367C0.683594 13.4701 1.06445 14.2383 1.55273 14.9414C2.04102 15.6445 2.6237 16.263 3.30078 16.7969C3.97786 17.3307 4.71354 17.7539 5.50781 18.0664C5.48177 17.7279 5.45898 17.321 5.43945 16.8457C5.41992 16.3704 5.45573 15.9505 5.54688 15.5859C5.58594 15.4167 5.65755 15.0977 5.76172 14.6289C5.87891 14.1602 5.99609 13.6784 6.11328 13.1836C6.23047 12.6888 6.33464 12.2461 6.42578 11.8555C6.51693 11.4648 6.5625 11.2695 6.5625 11.2695C6.5625 11.2695 6.52018 11.1523 6.43555 10.918C6.35091 10.6836 6.30859 10.3776 6.30859 10C6.30859 9.38802 6.46159 8.88346 6.76758 8.48633C7.07357 8.08919 7.44141 7.89062 7.87109 7.89062C8.23568 7.89062 8.50911 8.01107 8.69141 8.25195C8.8737 8.49284 8.96484 8.77604 8.96484 9.10156C8.96484 9.47917 8.87695 9.92513 8.70117 10.4395C8.52539 10.9538 8.3724 11.4714 8.24219 11.9922C8.13802 12.4219 8.2194 12.7897 8.48633 13.0957C8.75325 13.4017 9.10156 13.5547 9.53125 13.5547C10.2995 13.5547 10.944 13.1868 11.4648 12.4512C11.9857 11.7155 12.2461 10.7617 12.2461 9.58984C12.2461 8.54818 11.9108 7.69857 11.2402 7.04102C10.5697 6.38346 9.70052 6.05469 8.63281 6.05469C7.40885 6.05469 6.45182 6.44206 5.76172 7.2168C5.07161 7.99154 4.72656 8.86068 4.72656 9.82422C4.72656 10.2018 4.78841 10.5729 4.91211 10.9375C5.03581 11.3021 5.1888 11.5885 5.37109 11.7969C5.41016 11.8359 5.43294 11.8783 5.43945 11.9238C5.44596 11.9694 5.44271 12.0117 5.42969 12.0508C5.39062 12.181 5.34505 12.3633 5.29297 12.5977C5.24089 12.832 5.20833 12.9753 5.19531 13.0273C5.16927 13.1185 5.13346 13.1706 5.08789 13.1836C5.04232 13.1966 4.98047 13.1836 4.90234 13.1445C4.35547 12.8971 3.92578 12.4349 3.61328 11.7578C3.30078 11.0807 3.14453 10.4297 3.14453 9.80469C3.14453 9.11458 3.26823 8.45703 3.51562 7.83203C3.76302 7.19401 4.1276 6.63411 4.60938 6.15234C5.09115 5.67057 5.68359 5.27995 6.38672 4.98047C7.10286 4.69401 7.92969 4.55078 8.86719 4.55078C9.60938 4.55078 10.306 4.68099 10.957 4.94141C11.6081 5.1888 12.1745 5.53711 12.6562 5.98633C13.138 6.43555 13.5156 6.96615 13.7891 7.57812C14.0625 8.17708 14.1992 8.83464 14.1992 9.55078C14.1992 10.306 14.0885 11.0091 13.8672 11.6602C13.6458 12.3112 13.3366 12.8809 12.9395 13.3691C12.5423 13.8574 12.0638 14.2448 11.5039 14.5312C10.957 14.8047 10.3581 14.9414 9.70703 14.9414C9.26432 14.9414 8.85742 14.8438 8.48633 14.6484C8.11523 14.4531 7.85807 14.2188 7.71484 13.9453C7.71484 13.9453 7.63997 14.2383 7.49023 14.8242C7.34049 15.4102 7.23958 15.8073 7.1875 16.0156C7.08333 16.3932 6.92057 16.7936 6.69922 17.2168C6.47786 17.64 6.28255 17.9948 6.11328 18.2812C6.51693 18.4115 6.93359 18.5091 7.36328 18.5742C7.79297 18.6393 8.22917 18.6719 8.67188 18.6719C9.86979 18.6719 10.9961 18.444 12.0508 17.9883C13.0924 17.5326 14.0072 16.9141 14.7949 16.1328C15.5827 15.3516 16.2044 14.4336 16.6602 13.3789C17.1159 12.3242 17.3438 11.1979 17.3438 10C17.3438 8.80208 17.1159 7.67578 16.6602 6.62109C16.2044 5.57943 15.5827 4.66471 14.7949 3.87695C14.0072 3.08919 13.0924 2.46745 12.0508 2.01172C10.9961 1.55599 9.86979 1.32812 8.67188 1.32812Z" fill="#2A3546"/>
</svg>
