<svg width="15" height="15" viewBox="0 0 15 15" fill="none" xmlns="http://www.w3.org/2000/svg">
<g id="pen-to-square 1" clip-path="url(#clip0_8206_7003)">
<path id="Vector" d="M10.952 1.18282C11.7203 0.413995 12.9672 0.413995 13.7355 1.18282L14.0664 1.51423C14.8348 2.28313 14.8348 3.52973 14.0664 4.29809L8.67422 9.69301C8.43633 9.92817 8.14375 10.1004 7.82109 10.1934L5.08672 10.9754C4.85703 11.0411 4.61094 10.9754 4.44141 10.784C4.27461 10.6391 4.20898 10.393 4.27461 10.1633L5.05664 7.42895C5.14961 7.1063 5.32188 6.81372 5.55703 6.57583L10.952 1.18282ZM12.784 2.11087C12.5516 1.85466 12.1359 1.85466 11.8789 2.11087L11.0832 2.9063L12.3438 4.16684L13.1395 3.34653C13.3965 3.11411 13.3965 2.69848 13.1395 2.44227L12.784 2.11087ZM6.31992 7.78989L5.86055 9.3895L7.46016 8.93012C7.56953 8.90005 7.66523 8.84262 7.74453 8.76333L11.4168 5.0938L10.1562 3.83325L6.48672 7.50552C6.40742 7.58481 6.35 7.68051 6.31992 7.78989ZM6.21875 2.25005C6.58242 2.25005 6.875 2.54399 6.875 2.9063C6.875 3.26997 6.58242 3.56255 6.21875 3.56255H3.15625C2.55223 3.56255 2.0625 4.052 2.0625 4.6563V12.0938C2.0625 12.6981 2.55223 13.1875 3.15625 13.1875H10.5938C11.198 13.1875 11.6875 12.6981 11.6875 12.0938V9.0313C11.6875 8.66762 11.9801 8.37505 12.3438 8.37505C12.7074 8.37505 13 8.66762 13 9.0313V12.0938C13 13.4227 11.9227 14.5 10.5938 14.5H3.15625C1.82734 14.5 0.75 13.4227 0.75 12.0938V4.6563C0.75 3.32739 1.82734 2.25005 3.15625 2.25005H6.21875Z" fill="#71717A"/>
</g>
<defs>
<clipPath id="clip0_8206_7003">
<rect width="14" height="14" fill="white" transform="translate(0.75 0.5)"/>
</clipPath>
</defs>
</svg>
