<svg width="17" height="16" viewBox="0 0 17 16" fill="none" xmlns="http://www.w3.org/2000/svg">
<g id="Frame" clip-path="url(#clip0_10548_3660)">
<path id="Vector" d="M5.97832 0.7686C5.7377 0.18735 5.10332 -0.122025 4.49707 0.0436001L1.74707 0.7936C1.20332 0.9436 0.825195 1.43735 0.825195 1.99985C0.825195 9.7311 7.09395 15.9998 14.8252 15.9998C15.3877 15.9998 15.8814 15.6217 16.0314 15.078L16.7814 12.328C16.9471 11.7217 16.6377 11.0874 16.0564 10.8467L13.0564 9.59673C12.5471 9.38423 11.9564 9.5311 11.6096 9.95923L10.3471 11.4999C8.14707 10.4592 6.36582 8.67798 5.3252 6.47798L6.86582 5.2186C7.29395 4.8686 7.44082 4.2811 7.22832 3.77172L5.97832 0.771725V0.7686Z" fill="white"/>
</g>
<defs>
<clipPath id="clip0_10548_3660">
<rect width="16" height="16" fill="white" transform="translate(0.825195)"/>
</clipPath>
</defs>
</svg>
