<svg width="15" height="16" viewBox="0 0 15 16" fill="none" xmlns="http://www.w3.org/2000/svg">
<g id="plus 1" clip-path="url(#clip0_8180_4556)">
<path id="Vector" d="M13.875 7.99993C13.875 8.41556 13.5406 8.74993 13.125 8.74993H8.125V13.7499C8.125 14.164 7.78906 14.5002 7.375 14.5002C6.96094 14.5002 6.625 14.1656 6.625 13.7499V8.74993H1.625C1.21094 8.74993 0.875 8.41431 0.875 8.00024C0.875 7.58743 1.21094 7.24993 1.625 7.24993H6.625V2.24993C6.625 1.83587 6.96094 1.50024 7.375 1.50024C7.78906 1.50024 8.125 1.83587 8.125 2.24993V7.24993H13.125C13.5406 7.24993 13.875 7.58743 13.875 7.99993Z" fill="#EF4444"/>
</g>
<defs>
<clipPath id="clip0_8180_4556">
<rect width="14" height="16" fill="white" transform="translate(0.375)"/>
</clipPath>
</defs>
</svg>
