<svg width="14" height="14" viewBox="0 0 14 14" fill="none" xmlns="http://www.w3.org/2000/svg">
<g id="print 1" clip-path="url(#clip0_8223_277)">
<path id="Vector" d="M3.03789 1.3125H9.98594L10.9375 2.24055V4.375H12.25V2.24055C12.25 1.89246 12.1117 1.55859 11.8655 1.3125L10.9375 0.384453C10.6914 0.138277 10.3578 0 10.0105 0H3.03789C2.33762 0 1.75027 0.587344 1.75 1.31195L1.75005 3.5618C1.75 3.5618 1.75011 3.5618 1.75005 3.5618L1.75 4.375H3.06277L3.03789 1.3125ZM12.0312 5.25H1.96875C0.883203 5.25 0 6.1332 0 7.21875V10.2812C0 10.6436 0.293945 10.9375 0.65625 10.9375H2.1875V13.125C2.1875 13.6082 2.57934 14 3.0625 14H10.9375C11.4207 14 11.8125 13.6082 11.8125 13.125V10.9375H13.3438C13.7061 10.9375 14 10.6436 14 10.2812V7.21875C14 6.1332 13.1168 5.25 12.0312 5.25ZM10.5 12.6875H3.5V10.0625H10.5V12.6875ZM12.6875 9.625H11.8125C11.8125 9.14184 11.4207 8.75 10.9375 8.75H3.0625C2.57934 8.75 2.1875 9.14184 2.1875 9.625H1.3125V7.21875C1.3125 6.85699 1.60699 6.5625 1.96875 6.5625H12.0312C12.393 6.5625 12.6875 6.85699 12.6875 7.21875V9.625Z" fill="#FAFAFA"/>
</g>
<defs>
<clipPath id="clip0_8223_277">
<rect width="14" height="14" fill="white"/>
</clipPath>
</defs>
</svg>
