<svg width="16" height="17" viewBox="0 0 16 17" fill="none" xmlns="http://www.w3.org/2000/svg">
<g id="right-from-bracket 1">
<path id="Vector" d="M5.25 14H3C2.175 14 1.5 13.325 1.5 12.5V4.5C1.5 3.675 2.175 3 3 3H5.25C5.66563 3 6 2.66406 6 2.25C6 1.83562 5.66563 1.5 5.25 1.5H3C1.34312 1.5 0 2.84312 0 4.5V12.5C0 14.1569 1.34312 15.5 3 15.5H5.25C5.66563 15.5 6 15.1656 6 14.75C6 14.3344 5.66563 14 5.25 14ZM15.7469 7.95625L10.9844 3.7625C10.6768 3.48906 10.2344 3.4225 9.85656 3.59159C9.4875 3.75938 9.25 4.12187 9.25 4.52187V6.25031H5.5C4.81063 6.25031 4.25 6.81094 4.25 7.50031V9.50031C4.25 10.1897 4.81063 10.7503 5.5 10.7503H9.25V12.4788C9.25 12.8772 9.48828 13.2416 9.85656 13.4075C9.99525 13.47 10.1427 13.5003 10.2891 13.5003C10.541 13.5003 10.79 13.4095 10.9844 13.2366L15.7469 9.07722C15.9094 8.93438 16 8.73125 16 8.51562C16 8.3 15.9094 8.09688 15.7469 7.95625ZM10.75 11.4375V9.22188H5.75V7.72188H10.75V5.53438L14.1187 8.48875L10.75 11.4375Z" fill="#27272A"/>
</g>
</svg>
