<svg width="20" height="20" viewBox="0 0 20 20" fill="none" xmlns="http://www.w3.org/2000/svg">
<g id="shield-keyhole 1" clip-path="url(#clip0_7908_3820)">
<path id="Vector" d="M18.2227 3.26914L10.7227 0.14375C10.5312 0.0646875 10.207 0 10.0039 0C9.79688 0 9.47266 0.0646875 9.28125 0.144063L1.78125 3.26945C1.08164 3.55781 0.625 4.24219 0.625 4.96484C0.625 15.0469 8.01562 20 9.96484 20C11.9961 20 19.375 14.9922 19.375 4.96484C19.375 4.24219 18.918 3.55781 18.2227 3.26914ZM10.0039 1.87617C10.0039 1.87578 10.0078 1.87617 10.0039 1.87617V1.87617ZM9.96484 18.125C6.38672 16.6211 2.50234 11.8711 2.50234 5.00391C2.50234 5.00195 2.50234 5.00586 2.50234 5.00391L9.95547 1.89297C9.96844 1.889 9.98446 1.88117 10.0053 1.87736L17.5 4.96484C17.5 12.9102 12.5938 17.043 9.96484 18.125ZM7.8125 8.125C7.8125 8.99609 8.32539 9.74219 9.0625 10.0941V12.8125C9.0625 13.332 9.48438 13.75 10 13.75C10.5156 13.75 10.9375 13.3301 10.9375 12.8125V10.0938C11.6746 9.74187 12.1875 8.9957 12.1875 8.12461C12.1875 6.91641 11.2082 5.93711 10 5.93711C8.7918 5.93711 7.8125 6.91797 7.8125 8.125Z" fill="url(#paint0_linear_7908_3820)"/>
</g>
<defs>
<linearGradient id="paint0_linear_7908_3820" x1="0.625" y1="10" x2="19.375" y2="10" gradientUnits="userSpaceOnUse">
<stop stop-color="#893835"/>
<stop offset="1" stop-color="#FF564F"/>
</linearGradient>
<clipPath id="clip0_7908_3820">
<rect width="20" height="20" fill="white"/>
</clipPath>
</defs>
</svg>
