<svg width="61" height="37" viewBox="0 0 61 37" fill="none" xmlns="http://www.w3.org/2000/svg">
<g id="SVG" clip-path="url(#clip0_8732_4603)">
<g id="SvgjsG8482">
<g id="SvgjsG8492">
<g id="SvgjsG8493">
<g id="Clip path group">
<mask id="mask0_8732_4603" style="mask-type:luminance" maskUnits="userSpaceOnUse" x="2" y="-2" width="65" height="41">
<g id="gridRectMask3rceywubg">
<path id="SvgjsRect8490" d="M66.6665 -1.5H2.6665V38.5H66.6665V-1.5Z" fill="white"/>
</g>
</mask>
<g mask="url(#mask0_8732_4603)">
<path id="SvgjsPath8501" d="M11.0278 36.251C11.0278 35.251 12.0278 34.251 13.0278 34.251C13.6884 34.251 14.3489 35.251 14.3489 36.251C14.3489 36.376 13.3489 36.501 12.3489 36.501C11.6884 36.501 11.0278 36.376 11.0278 36.251Z" fill="#B3E5D0"/>
</g>
</g>
<g id="Clip path group_2">
<mask id="mask1_8732_4603" style="mask-type:luminance" maskUnits="userSpaceOnUse" x="2" y="-2" width="65" height="41">
<g id="gridRectMask3rceywubg_2">
<path id="SvgjsRect8490_2" d="M66.6665 -1.5H2.6665V38.5H66.6665V-1.5Z" fill="white"/>
</g>
</mask>
<g mask="url(#mask1_8732_4603)">
<path id="SvgjsPath8506" d="M15.9126 34.5014V30.4014C15.9126 29.4014 16.9126 28.4014 17.9126 28.4014C18.5731 28.4014 19.2337 29.4014 19.2337 30.4014V34.5014C19.2337 35.5014 18.2337 36.5014 17.2337 36.5014C16.5731 36.5014 15.9126 35.5014 15.9126 34.5014Z" fill="#B3E5D0"/>
</g>
</g>
<g id="Clip path group_3">
<mask id="mask2_8732_4603" style="mask-type:luminance" maskUnits="userSpaceOnUse" x="2" y="-2" width="65" height="41">
<g id="gridRectMask3rceywubg_3">
<path id="SvgjsRect8490_3" d="M66.6665 -1.5H2.6665V38.5H66.6665V-1.5Z" fill="white"/>
</g>
</mask>
<g mask="url(#mask2_8732_4603)">
<path id="SvgjsPath8511" d="M20.7954 34.5006V33.1006C20.7954 32.1006 21.7954 31.1006 22.7954 31.1006C23.456 31.1006 24.1165 32.1006 24.1165 33.1006V34.5006C24.1165 35.5006 23.1165 36.5006 22.1165 36.5006C21.456 36.5006 20.7954 35.5006 20.7954 34.5006Z" fill="#B3E5D0"/>
</g>
</g>
<g id="Clip path group_4">
<mask id="mask3_8732_4603" style="mask-type:luminance" maskUnits="userSpaceOnUse" x="2" y="-2" width="65" height="41">
<g id="gridRectMask3rceywubg_4">
<path id="SvgjsRect8490_4" d="M66.6665 -1.5H2.6665V38.5H66.6665V-1.5Z" fill="white"/>
</g>
</mask>
<g mask="url(#mask3_8732_4603)">
<path id="SvgjsPath8516" d="M25.6802 34.5008V15.5508C25.6802 14.5508 26.6802 13.5508 27.6802 13.5508C28.3407 13.5508 29.0013 14.5508 29.0013 15.5508V34.5008C29.0013 35.5008 28.0013 36.5008 27.0013 36.5008C26.3407 36.5008 25.6802 35.5008 25.6802 34.5008Z" fill="#B3E5D0"/>
</g>
</g>
<g id="Clip path group_5">
<mask id="mask4_8732_4603" style="mask-type:luminance" maskUnits="userSpaceOnUse" x="2" y="-2" width="65" height="41">
<g id="gridRectMask3rceywubg_5">
<path id="SvgjsRect8490_5" d="M66.6665 -1.5H2.6665V38.5H66.6665V-1.5Z" fill="white"/>
</g>
</mask>
<g mask="url(#mask4_8732_4603)">
<path id="SvgjsPath8521" d="M30.5649 34.5014V7.90137C30.5649 6.90137 31.5649 5.90137 32.5649 5.90137C33.2255 5.90137 33.886 6.90137 33.886 7.90137V34.5014C33.886 35.5014 32.886 36.5014 31.886 36.5014C31.2255 36.5014 30.5649 35.5014 30.5649 34.5014Z" fill="#B3E5D0"/>
</g>
</g>
<g id="Clip path group_6">
<mask id="mask5_8732_4603" style="mask-type:luminance" maskUnits="userSpaceOnUse" x="2" y="-2" width="65" height="41">
<g id="gridRectMask3rceywubg_6">
<path id="SvgjsRect8490_6" d="M66.6665 -1.5H2.6665V38.5H66.6665V-1.5Z" fill="white"/>
</g>
</mask>
<g mask="url(#mask5_8732_4603)">
<path id="SvgjsPath8526" d="M35.4478 34.5008V33.5508C35.4478 32.5508 36.4478 31.5508 37.4478 31.5508C38.1083 31.5508 38.7688 32.5508 38.7688 33.5508V34.5008C38.7688 35.5008 37.7688 36.5008 36.7688 36.5008C36.1083 36.5008 35.4478 35.5008 35.4478 34.5008Z" fill="#B3E5D0"/>
</g>
</g>
<g id="Clip path group_7">
<mask id="mask6_8732_4603" style="mask-type:luminance" maskUnits="userSpaceOnUse" x="2" y="-2" width="65" height="41">
<g id="gridRectMask3rceywubg_7">
<path id="SvgjsRect8490_7" d="M66.6665 -1.5H2.6665V38.5H66.6665V-1.5Z" fill="white"/>
</g>
</mask>
<g mask="url(#mask6_8732_4603)">
<path id="SvgjsPath8531" d="M40.3325 34.5012V20.9512C40.3325 19.9512 41.3325 18.9512 42.3325 18.9512C42.9931 18.9512 43.6536 19.9512 43.6536 20.9512V34.5012C43.6536 35.5012 42.6536 36.5012 41.6536 36.5012C40.9931 36.5012 40.3325 35.5012 40.3325 34.5012Z" fill="#B3E5D0"/>
</g>
</g>
<g id="Clip path group_8">
<mask id="mask7_8732_4603" style="mask-type:luminance" maskUnits="userSpaceOnUse" x="2" y="-2" width="65" height="41">
<g id="gridRectMask3rceywubg_8">
<path id="SvgjsRect8490_8" d="M66.6665 -1.5H2.6665V38.5H66.6665V-1.5Z" fill="white"/>
</g>
</mask>
<g mask="url(#mask7_8732_4603)">
<path id="SvgjsPath8536" d="M45.2153 34.5006V21.8506C45.2153 20.8506 46.2153 19.8506 47.2153 19.8506C47.8759 19.8506 48.5364 20.8506 48.5364 21.8506V34.5006C48.5364 35.5006 47.5364 36.5006 46.5364 36.5006C45.8759 36.5006 45.2153 35.5006 45.2153 34.5006Z" fill="#B3E5D0"/>
</g>
</g>
<g id="Clip path group_9">
<mask id="mask8_8732_4603" style="mask-type:luminance" maskUnits="userSpaceOnUse" x="2" y="-2" width="65" height="41">
<g id="gridRectMask3rceywubg_9">
<path id="SvgjsRect8490_9" d="M66.6665 -1.5H2.6665V38.5H66.6665V-1.5Z" fill="white"/>
</g>
</mask>
<g mask="url(#mask8_8732_4603)">
<path id="SvgjsPath8541" d="M50.1001 34.5006V26.3506C50.1001 25.3506 51.1001 24.3506 52.1001 24.3506C52.7606 24.3506 53.4212 25.3506 53.4212 26.3506V34.5006C53.4212 35.5006 52.4212 36.5006 51.4212 36.5006C50.7606 36.5006 50.1001 35.5006 50.1001 34.5006Z" fill="#B3E5D0"/>
</g>
</g>
<g id="Clip path group_10">
<mask id="mask9_8732_4603" style="mask-type:luminance" maskUnits="userSpaceOnUse" x="2" y="-2" width="65" height="41">
<g id="gridRectMask3rceywubg_10">
<path id="SvgjsRect8490_10" d="M66.6665 -1.5H2.6665V38.5H66.6665V-1.5Z" fill="white"/>
</g>
</mask>
<g mask="url(#mask9_8732_4603)">
<path id="SvgjsPath8546" d="M54.9829 34.501V29.501C54.9829 28.501 55.9829 27.501 56.9829 27.501C57.6435 27.501 58.304 28.501 58.304 29.501V34.501C58.304 35.501 57.304 36.501 56.304 36.501C55.6435 36.501 54.9829 35.501 54.9829 34.501Z" fill="#B3E5D0"/>
</g>
</g>
</g>
</g>
</g>
</g>
<defs>
<clipPath id="clip0_8732_4603">
<rect width="60" height="36" fill="white" transform="translate(0.666504 0.5)"/>
</clipPath>
</defs>
</svg>
