<svg width="202" height="166" viewBox="0 0 202 166" fill="none" xmlns="http://www.w3.org/2000/svg">
<g id="SVG" clip-path="url(#clip0_8732_4228)">
<path id="Vector" opacity="0.2" d="M0.609375 90.9071C0.609375 109.033 6.85475 125.549 17.1324 138.031C28.9227 152.356 46.0203 161.363 65.0786 161.393C73.1737 161.412 81.1941 159.772 88.6873 156.568C92.4697 154.951 96.7033 155.137 100.367 157.052C104.772 159.358 109.631 160.557 114.557 160.554C116.656 160.554 118.712 160.338 120.7 159.927C126.375 158.76 131.54 155.997 135.782 152.084C138.447 149.624 141.861 148.387 145.35 148.391H145.409C156.938 148.391 167.647 144.574 176.539 138.031C184.488 132.19 190.979 124.174 195.304 114.762C199.074 106.559 201.197 97.2938 201.197 87.4873C201.197 53.8533 176.218 26.5828 145.409 26.5828C142.268 26.5828 139.191 26.8727 136.189 27.4131C128.241 13.3649 114.006 4.00002 97.7685 4.00002C91.1204 3.99374 84.5601 5.58859 78.5957 8.66103C73.0628 11.4972 68.1438 15.5273 64.12 20.4388C50.4558 20.6767 37.8217 25.5497 27.481 33.6821C11.2033 46.4764 0.609375 67.3428 0.609375 90.9075V90.9071Z" fill="url(#paint0_linear_8732_4228)"/>
<path id="Vector_2" opacity="0.24" fill-rule="evenodd" clip-rule="evenodd" d="M46.2054 46.8916L46.5447 47.6903L46.5364 47.6943L46.5109 47.7061L46.4072 47.755C46.3157 47.7987 46.1799 47.8643 46.0027 47.9513L45.6479 47.1596C45.8276 47.0712 45.9664 47.0044 46.0608 46.9598L46.1678 46.9086L46.1954 46.8955L46.2054 46.8911V46.8916ZM43.3759 48.3247C43.7925 48.103 44.1703 47.9059 44.5042 47.7345L44.8727 48.5193C44.5422 48.6889 44.1678 48.8843 43.7549 49.1038L43.3759 48.3247ZM41.1376 49.5524C41.5263 49.3329 41.8982 49.1261 42.2513 48.9324L42.6395 49.7067C42.2893 49.8986 41.9208 50.1041 41.5346 50.3218L41.1376 49.5524ZM38.9337 50.8321C39.3102 50.6078 39.6771 50.3918 40.0327 50.1854L40.4381 50.9501C40.0854 51.1547 39.7214 51.3689 39.3478 51.5919L38.9337 50.8321ZM36.7473 52.1721C37.1179 51.9391 37.4819 51.713 37.8388 51.4944L38.2609 52.2486C37.9069 52.4659 37.5454 52.6902 37.1781 52.9214L36.7473 52.1721ZM34.6089 53.5536C34.9687 53.3149 35.3248 53.0819 35.6766 52.8546L36.1154 53.5987C35.7669 53.8243 35.4134 54.0551 35.0565 54.2921L34.6089 53.5536ZM32.4923 54.9968C32.8412 54.7525 33.1915 54.5104 33.5433 54.2707L33.9996 55.003C33.6508 55.2408 33.3034 55.481 32.9574 55.7235L32.4923 54.9968ZM30.4121 56.4969C30.7589 56.2394 31.1058 55.9862 31.4501 55.7379L31.924 56.4575C31.5826 56.7041 31.2395 56.9546 30.8956 57.21L30.4121 56.4969ZM28.3757 58.0533C28.7118 57.7883 29.0499 57.526 29.3899 57.2664L29.883 57.9724C29.5487 58.2282 29.2135 58.4879 28.8784 58.7515L28.3757 58.0533ZM26.3819 59.6754C26.7108 59.399 27.0405 59.1262 27.3706 58.8578L27.8838 59.5481C27.557 59.8139 27.2307 60.0837 26.9051 60.3569L26.3819 59.6754ZM24.4383 61.366C24.758 61.0779 25.0794 60.7933 25.4024 60.5126L25.9369 61.185C25.6176 61.4626 25.2996 61.7438 24.9837 62.0284L24.4383 61.366ZM22.5536 63.1301C22.8624 62.8293 23.1742 62.532 23.488 62.2382L24.0451 62.8901C23.735 63.1804 23.4274 63.4738 23.1224 63.7702L22.5536 63.1301ZM20.7371 64.9729C21.0334 64.6588 21.333 64.348 21.6359 64.0408L22.2176 64.6691C21.9188 64.9716 21.6234 65.2777 21.3317 65.5872L20.7371 64.9729ZM18.9999 66.9014C19.2815 66.5731 19.5678 66.2478 19.8578 65.926L20.4658 66.5254C20.1804 66.8424 19.8992 67.1624 19.6221 67.4855L18.9999 66.9014ZM17.358 68.9226C17.6225 68.5781 17.8925 68.2371 18.167 67.8991L18.8039 68.4653C18.5347 68.7963 18.27 69.1312 18.0099 69.47L17.358 68.9226ZM15.8298 71.0422C16.074 70.6802 16.3238 70.3224 16.579 69.9688L17.246 70.4957C16.9953 70.8428 16.7508 71.193 16.513 71.5463L15.8298 71.0422ZM14.439 73.2649C14.6577 72.8861 14.883 72.5115 15.1148 72.1413L15.8139 72.6209C15.5877 72.982 15.3678 73.3474 15.1544 73.717L14.439 73.2649ZM13.2104 75.6C13.3985 75.2035 13.5957 74.8104 13.8013 74.4204L14.5335 74.8423C14.3342 75.2203 14.1426 75.6026 13.9589 75.9891L13.2104 75.6ZM12.1803 78.0409C12.3333 77.6264 12.4958 77.215 12.6684 76.8067L13.4332 77.1599C13.266 77.5561 13.108 77.9543 12.9601 78.3557L12.1803 78.0409ZM11.3851 80.5802C11.4958 80.15 11.6183 79.7224 11.7511 79.2983L12.5451 79.5711C12.4169 79.9799 12.2991 80.3922 12.192 80.8075L11.3851 80.5802ZM10.8615 83.2003C10.9241 82.7579 10.9998 82.3181 11.0871 81.8813L11.9054 82.0606C11.8211 82.481 11.7486 82.904 11.688 83.3289L10.8615 83.2003ZM10.6663 85.2014C10.678 84.9771 10.6935 84.7537 10.7119 84.5303L11.5443 84.6064C11.5267 84.8202 11.5121 85.0348 11.5008 85.2499C11.4891 85.4668 11.4841 85.681 11.4854 85.8922L10.6496 85.8983C10.6483 85.6683 10.6538 85.4362 10.6663 85.2014ZM11.0098 88.5893C10.8904 88.1484 10.8006 87.6993 10.7411 87.2453L11.5694 87.1264C11.6241 87.5457 11.7064 87.9536 11.8138 88.351L11.0098 88.5893ZM12.0537 91.0809C11.8275 90.6914 11.6259 90.2869 11.4503 89.8699L12.215 89.5179C12.3746 89.897 12.5594 90.2668 12.7683 90.6275L12.0537 91.0809ZM13.6321 93.2101C13.3345 92.8862 13.0529 92.5466 12.7884 92.1927L13.4478 91.655C13.6947 91.9855 13.9576 92.3026 14.2355 92.605L13.6321 93.2101ZM15.5552 94.9799C15.2184 94.7153 14.891 94.4379 14.5736 94.1483L15.1235 93.4899C15.4186 93.7596 15.7303 94.0233 16.0575 94.2808L15.5552 94.9799ZM17.6823 96.4493C17.317 96.2265 16.9575 95.9935 16.6041 95.7507L17.0638 95.0201C17.4046 95.2544 17.7513 95.4793 18.1035 95.6943L17.6823 96.4493ZM19.9268 97.6835C19.5447 97.494 19.1663 97.2965 18.7918 97.0911L19.18 96.3168C19.5381 96.5131 19.9071 96.7055 20.2853 96.8935L19.9268 97.6835ZM22.2427 98.7363C21.8457 98.5706 21.4562 98.4014 21.0751 98.2283L21.4073 97.4265C21.7809 97.5957 22.1625 97.7618 22.5524 97.924L22.2427 98.7363ZM145.461 97.6022C145.563 97.6464 145.711 97.7128 145.899 97.802L145.553 98.5982C145.381 98.5165 145.208 98.4387 145.034 98.3647L145.009 98.3538L145.003 98.3516L145.001 98.3511L145.151 97.9428L145.299 97.5345H145.3L145.301 97.5349L145.303 97.5358L145.312 97.5393L145.343 97.5524C145.37 97.5633 145.41 97.5799 145.461 97.6022ZM24.6042 99.6483C24.203 99.5045 23.8077 99.358 23.4187 99.2081L23.7078 98.3874C24.0902 98.5348 24.4793 98.6795 24.875 98.8211L24.6042 99.6483ZM147.052 98.3957C147.39 98.5816 147.766 98.7993 148.173 99.0502L147.749 99.8035C147.392 99.5832 147.03 99.3719 146.663 99.1696L147.052 98.3957ZM26.9983 100.45C26.595 100.323 26.1968 100.195 25.8036 100.063L26.0581 99.2304C26.4459 99.3598 26.8395 99.487 27.2382 99.612L26.9983 100.45ZM149.258 99.7546C149.615 99.9977 149.966 100.249 150.312 100.508L149.826 101.219C149.49 100.967 149.148 100.723 148.802 100.487L149.258 99.7546ZM29.4171 101.162C29.013 101.05 28.613 100.936 28.2177 100.82L28.4434 99.9775C28.8354 100.093 29.2311 100.206 29.631 100.317L29.4171 101.162ZM31.8546 101.802C31.4463 101.7 31.0418 101.597 30.6406 101.492L30.8437 100.644C31.2416 100.748 31.6427 100.85 32.0477 100.951L31.8546 101.802ZM34.3064 102.382C33.8935 102.289 33.4831 102.194 33.0761 102.098L33.26 101.245C33.6645 101.341 34.0719 101.435 34.4823 101.527L34.3064 102.382ZM151.34 101.315C151.674 101.59 152.002 101.873 152.324 102.164L151.778 102.826C151.466 102.544 151.147 102.27 150.823 102.003L151.34 101.315ZM36.7606 102.91C36.3488 102.826 35.9373 102.739 35.5262 102.65L35.6946 101.794C36.1012 101.882 36.5103 101.968 36.922 102.052L36.7606 102.91ZM39.2178 103.396C38.8062 103.318 38.3959 103.239 37.9876 103.158L38.1426 102.299C38.5492 102.379 38.9575 102.458 39.3675 102.536L39.2178 103.396ZM41.6851 103.849C41.2743 103.776 40.8648 103.703 40.4565 103.628L40.6006 102.766C41.0073 102.841 41.4155 102.914 41.8251 102.987L41.6851 103.849ZM153.275 103.062C153.586 103.369 153.89 103.684 154.186 104.007L153.584 104.613C153.296 104.3 153.002 103.995 152.701 103.697L153.275 103.062ZM44.1586 104.273C43.7453 104.204 43.3328 104.135 42.922 104.065L43.057 103.201C43.467 103.272 43.8777 103.341 44.2898 103.41L44.1586 104.273ZM46.6321 104.674C46.2183 104.608 45.8055 104.542 45.393 104.475L45.5209 103.612C45.9321 103.678 46.3437 103.744 46.7566 103.809L46.6321 104.674ZM49.106 105.055C48.6935 104.993 48.2806 104.93 47.8686 104.866L47.9906 104.001C48.4018 104.065 48.8134 104.127 49.2255 104.19L49.106 105.055ZM51.5836 105.422C51.1705 105.363 50.7575 105.302 50.3446 105.24L50.462 104.374L51.699 104.557L51.5836 105.422ZM54.0605 105.78C53.648 105.721 53.2347 105.662 52.8214 105.602L52.9355 104.736C53.3484 104.796 53.7613 104.855 54.1733 104.914L54.0605 105.78ZM155.05 104.993C155.33 105.33 155.603 105.674 155.867 106.024L155.211 106.566C154.955 106.226 154.691 105.894 154.42 105.568L155.05 104.993ZM56.5361 106.131L55.3004 105.956L55.4128 105.09L56.6481 105.265L56.5361 106.131ZM59.0163 106.481L57.7776 106.306L57.8892 105.44L59.1282 105.615L59.0163 106.481ZM61.4935 106.833L60.2494 106.656L60.3619 105.789L61.6072 105.967L61.4935 106.833ZM63.9653 107.192L62.7275 107.011L62.8425 106.145C63.2574 106.205 63.6707 106.266 64.0819 106.327L63.9653 107.192ZM66.4292 107.563C66.0234 107.5 65.6152 107.438 65.2048 107.377L65.3235 106.511C65.7351 106.573 66.1442 106.635 66.5508 106.698L66.4292 107.563ZM68.904 107.954C68.4978 107.888 68.0882 107.822 67.6754 107.757L67.8003 106.893C68.214 106.958 68.6248 107.024 69.0327 107.09L68.904 107.954ZM156.635 107.099C156.882 107.464 157.12 107.836 157.349 108.214L156.643 108.681C156.422 108.316 156.192 107.957 155.953 107.605L156.635 107.099ZM71.3712 108.371C70.9642 108.3 70.553 108.229 70.1376 108.159L70.2709 107.296C70.6879 107.366 71.1008 107.438 71.5099 107.509L71.3712 108.371ZM73.8288 108.824C73.4161 108.744 73.0031 108.666 72.5898 108.59L72.7343 107.729C73.1547 107.807 73.5701 107.885 73.9805 107.964L73.8288 108.824ZM76.2735 109.324C75.8673 109.236 75.4548 109.149 75.0361 109.063L75.1961 108.205C75.6178 108.291 76.0336 108.379 76.4431 108.468L76.2735 109.324ZM78.7014 109.888C78.3011 109.788 77.8928 109.69 77.4762 109.593L77.6571 108.74C78.0775 108.837 78.4908 108.937 78.8957 109.038L78.7014 109.888ZM81.1043 110.543C80.7015 110.423 80.2974 110.308 79.892 110.198L80.1018 109.352C80.5222 109.466 80.9325 109.582 81.3333 109.701L81.1043 110.543ZM158.007 109.367C158.213 109.752 158.413 110.148 158.605 110.555L157.855 110.942C157.673 110.554 157.48 110.172 157.278 109.795L158.007 109.367ZM83.4608 111.324C83.0651 111.177 82.6669 111.038 82.2664 110.906L82.518 110.073C82.9388 110.211 83.3467 110.354 83.7407 110.5L83.4608 111.324ZM85.7182 112.292C85.3518 112.11 84.9804 111.939 84.6045 111.779L84.92 110.969C85.3112 111.136 85.6976 111.314 86.0788 111.504L85.7182 112.292ZM159.142 111.775C159.307 112.181 159.465 112.597 159.615 113.023L158.83 113.323C158.688 112.918 158.535 112.516 158.373 112.119L159.142 111.775ZM87.2987 113.21C87.1369 113.1 86.9725 112.993 86.8056 112.892L87.2268 112.137C87.4098 112.248 87.5862 112.362 87.7558 112.478C87.9171 112.588 88.0851 112.699 88.2598 112.812L87.8231 113.557C87.6468 113.444 87.472 113.328 87.2987 113.21ZM90.0877 114.869C89.7068 114.668 89.3292 114.459 88.9552 114.244L89.358 113.478C89.7086 113.68 90.0781 113.884 90.4654 114.089L90.0877 114.869ZM160.023 114.295C160.147 114.716 160.262 115.147 160.367 115.587L159.556 115.799C159.456 115.38 159.345 114.964 159.224 114.551L160.023 114.295ZM92.4228 116.028C92.0141 115.837 91.618 115.646 91.2352 115.457L91.5929 114.667C91.9699 114.853 92.3602 115.041 92.7634 115.229L92.4228 116.028ZM94.7731 117.072C94.3648 116.899 93.9657 116.726 93.5762 116.553L93.9026 115.748C94.2879 115.919 94.6828 116.09 95.0869 116.262L94.7731 117.072ZM97.1559 118.042C96.7468 117.882 96.3443 117.721 95.9494 117.561L96.2528 116.746C96.644 116.905 97.043 117.064 97.4492 117.223L97.1559 118.042ZM160.646 116.894C160.728 117.326 160.8 117.766 160.862 118.214L160.035 118.34C159.976 117.913 159.906 117.487 159.827 117.063L160.646 116.894ZM99.5621 118.953C99.1555 118.804 98.7498 118.653 98.3448 118.5L98.6289 117.678C99.0259 117.828 99.4292 117.978 99.8379 118.127L99.5621 118.953ZM101.983 119.81C101.57 119.668 101.161 119.525 100.758 119.383L101.026 118.554C101.427 118.696 101.833 118.838 102.243 118.979L101.983 119.81ZM104.41 120.619C104.002 120.487 103.594 120.353 103.186 120.217L103.44 119.384C103.842 119.518 104.247 119.651 104.657 119.784L104.41 120.619ZM161.017 119.543C161.037 119.765 161.056 119.99 161.071 120.217C161.089 120.462 161.093 120.707 161.085 120.952L160.25 120.92C160.257 120.714 160.253 120.501 160.238 120.281C160.223 120.063 160.205 119.845 160.185 119.627L161.017 119.543ZM106.851 121.389C106.443 121.263 106.036 121.137 105.629 121.009L105.87 120.171C106.272 120.298 106.678 120.424 107.086 120.549L106.851 121.389ZM109.306 122.121C108.896 122.002 108.489 121.882 108.083 121.761L108.312 120.92C108.716 121.04 109.121 121.16 109.53 121.278L109.306 122.121ZM111.773 122.817C111.363 122.704 110.953 122.59 110.543 122.475L110.761 121.63C111.167 121.745 111.575 121.859 111.985 121.971L111.773 122.817ZM160.867 122.363C160.735 122.825 160.543 123.266 160.297 123.673L159.59 123.206C159.796 122.866 159.956 122.499 160.066 122.113L160.867 122.363ZM114.249 123.478C113.834 123.37 113.421 123.262 113.009 123.151L113.215 122.304C113.625 122.414 114.037 122.522 114.45 122.629L114.249 123.478ZM116.73 124.104C116.314 124.002 115.9 123.899 115.486 123.795L115.682 122.945C116.093 123.049 116.506 123.151 116.92 123.252L116.73 124.104ZM119.218 124.695C118.803 124.599 118.387 124.502 117.973 124.404L118.158 123.551C118.57 123.649 118.984 123.746 119.398 123.841L119.218 124.695ZM121.715 125.251C121.299 125.162 120.882 125.07 120.466 124.978L120.64 124.122C121.055 124.215 121.469 124.306 121.884 124.395L121.715 125.251ZM159.427 124.776C159.1 125.101 158.745 125.393 158.366 125.649L157.91 124.916C158.245 124.69 158.56 124.432 158.849 124.145L159.427 124.776ZM124.22 125.772C123.802 125.688 123.384 125.603 122.966 125.516L123.129 124.658C123.545 124.745 123.961 124.829 124.377 124.912L124.22 125.772ZM126.729 126.253C126.311 126.176 125.893 126.098 125.475 126.017L125.625 125.157C126.042 125.237 126.458 125.316 126.874 125.392L126.729 126.253ZM157.193 126.326C156.812 126.513 156.408 126.684 155.982 126.841L155.705 126.016C156.09 125.876 156.468 125.715 156.838 125.535L157.193 126.326ZM129.248 126.695C128.83 126.625 128.411 126.554 127.991 126.48L128.129 125.618C128.547 125.691 128.964 125.762 129.379 125.832L129.248 126.695ZM131.776 127.095C131.355 127.032 130.933 126.967 130.512 126.9L130.637 126.036C131.058 126.103 131.477 126.167 131.894 126.229L131.776 127.095ZM154.745 127.24C154.335 127.355 153.91 127.459 153.47 127.553L153.303 126.696C153.714 126.608 154.123 126.508 154.528 126.395L154.745 127.24ZM134.311 127.446C133.886 127.392 133.462 127.335 133.037 127.276L133.147 126.409C133.571 126.468 133.993 126.524 134.413 126.578L134.311 127.446ZM136.85 127.745C136.424 127.7 135.998 127.652 135.573 127.602L135.666 126.733C136.092 126.783 136.515 126.831 136.935 126.875L136.85 127.745ZM152.199 127.789C151.786 127.856 151.361 127.915 150.926 127.967L150.831 127.098C151.246 127.049 151.659 126.991 152.072 126.925L152.199 127.789ZM139.394 127.984C138.969 127.95 138.545 127.913 138.12 127.873L138.196 127.002C138.62 127.042 139.041 127.079 139.459 127.113L139.394 127.984ZM141.943 128.155C141.52 128.133 141.097 128.108 140.674 128.079L140.728 127.207C141.151 127.235 141.57 127.26 141.984 127.282L141.943 128.155ZM149.629 128.097C149.215 128.131 148.793 128.16 148.362 128.182L148.32 127.309C148.735 127.287 149.149 127.259 149.563 127.225L149.629 128.097ZM144.498 128.244C144.076 128.237 143.654 128.226 143.232 128.211L143.26 127.337C143.683 127.352 144.1 127.363 144.511 127.37L144.498 128.244ZM147.06 128.234C146.645 128.245 146.223 128.251 145.796 128.253L145.793 127.378C146.215 127.377 146.63 127.37 147.039 127.36L147.06 128.234Z" fill="#007867"/>
<path id="Vector_3" d="M20.5963 57.8923L40.7754 123.901C41.1097 124.966 41.7777 125.883 42.6715 126.502C43.5652 127.121 44.6325 127.407 45.7007 127.313L72.164 124.97L134.017 119.442C134.954 119.366 135.848 119 136.585 118.391C137.322 117.782 137.869 116.957 138.156 116.021C138.347 115.4 138.418 114.746 138.366 114.096C138.322 113.629 138.22 113.17 138.062 112.731L133.115 99.0807L124.167 74.0561L117.23 54.7187C116.89 53.7728 116.282 52.9581 115.487 52.383C114.693 51.808 113.75 51.4999 112.783 51.5H25.1087C23.8516 51.5001 22.6459 52.0226 21.7569 52.9526C20.8679 53.8826 20.3684 55.1439 20.3682 56.4592C20.3749 56.9462 20.4517 57.4293 20.5963 57.8923Z" fill="white"/>
<path id="Vector_4" d="M20.5963 57.8923L40.7754 123.901C41.1097 124.966 41.7777 125.883 42.6715 126.502C43.5652 127.121 44.6325 127.407 45.7007 127.313L72.164 124.97L134.017 119.442C134.954 119.366 135.848 119 136.585 118.391C137.322 117.782 137.869 116.957 138.156 116.021C138.347 115.4 138.418 114.746 138.366 114.096C138.322 113.629 138.22 113.17 138.062 112.731L133.115 99.0807L124.167 74.0561L117.23 54.7187C116.89 53.7728 116.282 52.9581 115.487 52.383C114.693 51.808 113.75 51.4999 112.783 51.5H25.1087C23.8516 51.5001 22.6459 52.0226 21.7569 52.9526C20.8679 53.8826 20.3684 55.1439 20.3682 56.4592C20.3749 56.9462 20.4517 57.4293 20.5963 57.8923Z" fill="white"/>
<path id="Vector_5" d="M71.8425 124.998L45.7001 127.313C44.632 127.407 43.5648 127.121 42.6712 126.502C41.7775 125.883 41.1096 124.966 40.7753 123.901L20.5954 57.8923C20.4505 57.4294 20.3736 56.9462 20.3672 56.4592C20.367 55.8079 20.4895 55.1629 20.7277 54.5611C20.9659 53.9593 21.3151 53.4125 21.7553 52.952C22.1956 52.4914 22.7182 52.1262 23.2934 51.877C23.8687 51.6279 24.4852 51.4998 25.1077 51.5H49.1168L71.8425 124.998Z" fill="url(#paint1_linear_8732_4228)"/>
<path id="Vector_6" d="M95.7895 87.9061C96.8814 87.8353 97.6148 86.7042 97.2742 85.6165L93.7293 74.2951C93.6152 73.9313 93.3902 73.6167 93.0888 73.3995C92.7874 73.1823 92.4262 73.0746 92.0606 73.0928L66.3098 74.3874C65.1957 74.4433 64.4456 75.6037 64.8104 76.7063L68.6751 88.387C68.7946 88.7481 69.0238 89.0583 69.3278 89.2702C69.6318 89.482 69.9938 89.5838 70.3583 89.56L95.7895 87.9061Z" fill="#F4F6F8"/>
<path id="Vector_7" d="M102.893 108.892C103.985 108.821 104.719 107.69 104.378 106.602L100.833 95.2809C100.719 94.9171 100.494 94.6025 100.193 94.3853C99.8914 94.1682 99.5302 94.0604 99.1646 94.0786L73.4138 95.3732C72.2997 95.4292 71.5496 96.5895 71.9144 97.6921L75.7791 109.373C75.8986 109.734 76.1278 110.044 76.4318 110.256C76.7358 110.468 77.0978 110.57 77.4623 110.546L102.893 108.892Z" fill="#DFE3E8"/>
<g id="Group" opacity="0.4">
<path id="Vector_8" d="M106.292 63.1248L112.957 86.2497C113.055 86.6221 113.268 86.9501 113.563 87.1826C113.858 87.4151 114.219 87.539 114.588 87.5351L131.119 87.0358C131.252 87.0318 131.382 86.9947 131.499 86.9276C131.615 86.8604 131.715 86.7652 131.789 86.6497C131.863 86.5343 131.91 86.402 131.925 86.2638C131.941 86.1257 131.925 85.9856 131.878 85.8553L123.52 62.5087C123.463 62.3502 123.364 62.2123 123.233 62.1118C123.103 62.0113 122.948 61.9525 122.786 61.9426L107.782 61.0205C107.535 61.0094 107.289 61.0619 107.066 61.1732C106.844 61.2846 106.65 61.4515 106.503 61.6592C106.356 61.8669 106.26 62.109 106.223 62.3645C106.187 62.62 106.21 62.881 106.292 63.1248Z" fill="#919EAB"/>
</g>
<path id="Vector_9" d="M138.499 80.5622L131.606 60.1444C131.5 59.8165 131.305 59.5284 131.044 59.316C130.783 59.1036 130.468 58.9763 130.138 58.9499L101.087 57.1526C100.84 57.1448 100.594 57.1996 100.372 57.3123C100.149 57.425 99.9556 57.5924 99.808 57.8001C99.6604 58.0079 99.5632 58.25 99.5246 58.5056C99.486 58.7613 99.5072 59.023 99.5865 59.2682L106.251 82.405C106.351 82.7776 106.564 83.106 106.858 83.3401C107.153 83.5742 107.512 83.7012 107.882 83.7017L137.172 82.7801C137.417 82.7655 137.655 82.6898 137.865 82.5592C138.076 82.4287 138.254 82.2471 138.383 82.0298C138.513 81.8126 138.592 81.566 138.612 81.3107C138.632 81.0553 138.593 80.7986 138.499 80.5622Z" fill="white"/>
<path id="Vector_10" d="M123.995 77.306C124.195 77.8468 124.295 78.1175 124.508 78.2705C124.722 78.424 124.999 78.424 125.554 78.424H125.687C126.794 78.424 127.347 78.4239 127.596 78.0436C127.845 77.6637 127.646 77.1237 127.246 76.0438L124.561 68.781C124.36 68.2398 124.26 67.9696 124.047 67.8161C123.833 67.6631 123.556 67.6631 123.001 67.6631H122.868C121.761 67.6631 121.208 67.6631 120.959 68.0434C120.71 68.4234 120.91 68.9633 121.309 70.0428L123.995 77.306Z" fill="#007867"/>
<g id="Group_2" opacity="0.48">
<path id="Vector_11" d="M128.574 77.303C128.774 77.8456 128.874 78.1166 129.087 78.2701C129.301 78.4235 129.579 78.4235 130.134 78.4235H130.265C131.372 78.4235 131.925 78.4235 132.175 78.0436C132.424 77.6633 132.224 77.1233 131.824 76.0439L131.161 74.2518C130.961 73.7109 130.861 73.4408 130.648 73.2877C130.434 73.1343 130.157 73.1343 129.602 73.1343H129.475C128.37 73.1343 127.818 73.1343 127.569 73.5138C127.319 73.8933 127.518 74.4328 127.915 75.5113L128.574 77.303Z" fill="url(#paint2_linear_8732_4228)"/>
<path id="Vector_12" d="M119.408 77.3044C119.608 77.8465 119.707 78.1176 119.921 78.271C120.135 78.4245 120.412 78.4245 120.968 78.4245H121.099C122.206 78.4245 122.76 78.4245 123.008 78.0441C123.257 77.6637 123.058 77.1238 122.658 76.0439L121.528 72.9896C121.328 72.4488 121.228 72.1786 121.014 72.0256C120.801 71.8726 120.523 71.8726 119.969 71.8726H119.842C118.737 71.8726 118.185 71.8726 117.936 72.252C117.687 72.6315 117.885 73.1711 118.283 74.2501L119.408 77.3044Z" fill="url(#paint3_linear_8732_4228)"/>
<path id="Vector_13" d="M114.83 77.3063C115.03 77.8471 115.13 78.1177 115.343 78.2707C115.557 78.4242 115.834 78.4242 116.389 78.4242H116.523C117.629 78.4242 118.182 78.4242 118.432 78.0438C118.681 77.6639 118.481 77.124 118.081 76.0441L114.134 65.3689C113.934 64.8276 113.834 64.5575 113.621 64.404C113.407 64.251 113.13 64.251 112.575 64.251H112.441C111.335 64.251 110.782 64.251 110.533 64.6309C110.284 65.0113 110.483 65.5508 110.882 66.6307L114.83 77.3063Z" fill="url(#paint4_linear_8732_4228)"/>
<path id="Vector_14" d="M110.242 77.3053C110.442 77.847 110.542 78.1177 110.755 78.2707C110.969 78.4241 111.246 78.4241 111.801 78.4241H111.935C113.041 78.4241 113.594 78.4241 113.843 78.0442C114.092 77.6643 113.893 77.1243 113.494 76.0449L108.089 61.4108C107.889 60.8696 107.789 60.599 107.575 60.4459C107.362 60.2925 107.084 60.2925 106.53 60.2925H106.395C105.289 60.2925 104.736 60.2925 104.487 60.6724C104.238 61.0523 104.438 61.5923 104.836 62.6717L110.242 77.3053Z" fill="url(#paint5_linear_8732_4228)"/>
</g>
<g id="Group_3" opacity="0.4">
<path id="Vector_15" fill-rule="evenodd" clip-rule="evenodd" d="M33.1651 72.1451C32.731 70.4605 32.9466 68.665 33.7656 67.1452C34.5846 65.6254 35.9413 64.5028 37.5437 64.0194C39.146 63.5359 40.8657 63.7302 42.3325 64.5604C43.7992 65.3905 44.8957 66.7902 45.3857 68.4579C45.8757 70.1256 45.72 71.9279 44.9522 73.4767C44.1844 75.0255 42.8659 76.1968 41.2807 76.7385C39.6954 77.2801 37.9703 77.1487 36.4767 76.3726C34.9832 75.5964 33.8407 74.2377 33.2954 72.5889L33.2303 72.3724L33.1651 72.1451ZM39.5145 70.3137L38.0143 65.2749C38.4377 65.1383 38.8759 65.0579 39.3185 65.0358C40.4257 64.9925 41.5158 65.3308 42.4213 65.9987C43.3268 66.6667 43.9977 67.6272 44.3307 68.7327C44.4611 69.1761 44.538 69.6343 44.5589 70.0977C44.5726 70.5598 44.5325 71.022 44.4393 71.474C44.2473 72.3775 43.8267 73.2104 43.2216 73.8856C42.6252 74.5723 41.8643 75.0798 41.0176 75.3558C40.1709 75.6317 39.2691 75.666 38.4054 75.4552C37.9797 75.3511 37.5672 75.1945 37.1768 74.9887C36.7841 74.7717 36.4188 74.5042 36.0895 74.1925C35.4476 73.571 34.9685 72.7879 34.6979 71.9178L39.5145 70.3137ZM47.0708 114.38C46.7438 112.728 47.0251 111.009 47.8584 109.565C48.6916 108.122 50.0154 107.061 51.5645 106.595C53.1136 106.129 54.7738 106.293 56.2126 107.053C57.6514 107.813 58.7626 109.114 59.3238 110.695V110.911C59.3238 110.979 59.3238 111.058 59.3998 111.127C59.8306 112.746 59.6613 114.477 58.9258 115.972C58.1903 117.467 56.9427 118.616 55.4323 119.191C53.9219 119.766 52.2599 119.723 50.7783 119.071C49.2967 118.42 48.1046 117.207 47.4402 115.676C47.4076 115.568 47.3779 115.46 47.3479 115.352C47.3185 115.244 47.2877 115.136 47.2555 115.028C47.2301 114.942 47.2063 114.855 47.184 114.768C47.1517 114.637 47.1139 114.507 47.0708 114.38ZM51.7457 107.953L53.3112 112.969L53.3442 112.958L54.9096 117.986C55.5331 117.768 56.1095 117.424 56.6057 116.973C57.102 116.522 57.5085 115.974 57.8018 115.358C58.0012 114.948 58.1473 114.512 58.2364 114.061C58.3325 113.614 58.3689 113.154 58.3451 112.696C58.2881 111.535 57.866 110.426 57.1445 109.541C56.4229 108.657 55.4423 108.047 54.355 107.805C53.4875 107.621 52.5892 107.672 51.7457 107.953ZM42.4381 86.2834C41.8454 86.9034 41.3753 87.6394 41.0546 88.4495C40.7339 89.2596 40.5688 90.1279 40.5688 91.0047V91.4708C40.5688 92.3476 40.7339 93.2158 41.0546 94.0259C41.3754 94.836 41.8455 95.5721 42.4381 96.1921C43.0307 96.8121 43.7343 97.3039 44.5086 97.6395C45.2829 97.975 46.1128 98.1477 46.9509 98.1477C47.789 98.1477 48.6189 97.975 49.3932 97.6395C50.1675 97.3039 50.871 96.8121 51.4636 96.1921C52.0563 95.5721 52.5264 94.836 52.8471 94.0259C53.1678 93.2158 53.3329 92.3476 53.3329 91.4708V91.0047C53.3331 89.684 52.9589 88.3929 52.2577 87.2948C51.5565 86.1966 50.5597 85.3407 49.3934 84.8353C48.2272 84.3299 46.9438 84.1977 45.7058 84.4555C44.4677 84.7132 43.3305 85.3493 42.4381 86.2834ZM46.8639 91.2207V85.9428C47.7465 85.9498 48.612 86.1968 49.3755 86.6593C49.7744 86.8842 50.1406 87.1676 50.4628 87.501C50.9331 87.9898 51.3063 88.5712 51.5609 89.2117C51.8155 89.8521 51.9465 90.5389 51.9463 91.2325C51.9461 91.9261 51.8147 92.6128 51.5598 93.2531C51.3048 93.8934 50.9313 94.4745 50.4607 94.9631C49.8313 95.6159 49.048 96.0829 48.1903 96.3167C47.337 96.5668 46.4344 96.5668 45.581 96.3167C45.1557 96.2016 44.7464 96.0296 44.3633 95.8047L46.8639 91.2207Z" fill="white"/>
</g>
<path id="Vector_16" d="M63.7271 37.5312H46.3638L51.648 40.9095L63.7271 37.5312Z" fill="url(#paint6_linear_8732_4228)"/>
<path id="Vector_17" d="M63.7273 37.5312L52.583 42.9228L54.4639 49.7935L63.7273 37.5312Z" fill="url(#paint7_linear_8732_4228)"/>
<path id="Vector_18" d="M49.6357 45.9601L52.5823 42.9228L63.7266 37.5312L49.6357 45.9601Z" fill="url(#paint8_linear_8732_4228)"/>
<path id="Vector_19" d="M49.6357 45.9601L52.5823 42.9228L63.7266 37.5312L51.6475 40.9095L49.6357 45.9601Z" fill="#007867"/>
</g>
<defs>
<linearGradient id="paint0_linear_8732_4228" x1="3911.26" y1="11308.3" x2="12883" y2="436.614" gradientUnits="userSpaceOnUse">
<stop stop-color="#00A76F"/>
<stop offset="1" stop-color="#00A76F" stop-opacity="0"/>
</linearGradient>
<linearGradient id="paint1_linear_8732_4228" x1="20.3676" y1="51.5" x2="20.3676" y2="127.331" gradientUnits="userSpaceOnUse">
<stop stop-color="#5BE49B"/>
<stop offset="1" stop-color="#007867"/>
</linearGradient>
<linearGradient id="paint2_linear_8732_4228" x1="104.378" y1="60.2923" x2="104.378" y2="78.424" gradientUnits="userSpaceOnUse">
<stop stop-color="#5BE49B"/>
<stop offset="1" stop-color="#007867"/>
</linearGradient>
<linearGradient id="paint3_linear_8732_4228" x1="104.378" y1="60.2928" x2="104.378" y2="78.4245" gradientUnits="userSpaceOnUse">
<stop stop-color="#5BE49B"/>
<stop offset="1" stop-color="#007867"/>
</linearGradient>
<linearGradient id="paint4_linear_8732_4228" x1="104.377" y1="60.2925" x2="104.377" y2="78.4242" gradientUnits="userSpaceOnUse">
<stop stop-color="#5BE49B"/>
<stop offset="1" stop-color="#007867"/>
</linearGradient>
<linearGradient id="paint5_linear_8732_4228" x1="104.377" y1="60.2925" x2="104.377" y2="78.4241" gradientUnits="userSpaceOnUse">
<stop stop-color="#5BE49B"/>
<stop offset="1" stop-color="#007867"/>
</linearGradient>
<linearGradient id="paint6_linear_8732_4228" x1="46.3638" y1="37.5312" x2="46.3638" y2="49.7935" gradientUnits="userSpaceOnUse">
<stop stop-color="#5BE49B"/>
<stop offset="1" stop-color="#007867"/>
</linearGradient>
<linearGradient id="paint7_linear_8732_4228" x1="46.364" y1="37.5312" x2="46.364" y2="49.7935" gradientUnits="userSpaceOnUse">
<stop stop-color="#5BE49B"/>
<stop offset="1" stop-color="#007867"/>
</linearGradient>
<linearGradient id="paint8_linear_8732_4228" x1="46.3632" y1="37.5312" x2="46.3632" y2="49.7935" gradientUnits="userSpaceOnUse">
<stop stop-color="#5BE49B"/>
<stop offset="1" stop-color="#007867"/>
</linearGradient>
<clipPath id="clip0_8732_4228">
<rect width="200.587" height="165.714" fill="white" transform="translate(0.561035 0.143066)"/>
</clipPath>
</defs>
</svg>
