<svg width="15" height="14" viewBox="0 0 15 14" fill="none" xmlns="http://www.w3.org/2000/svg">
<g id="tape 1" clip-path="url(#clip0_8180_4540)">
<path id="Vector" d="M3.73611 7.00011C3.73611 5.69004 4.75938 4.66678 6.06944 4.66678C7.35764 4.66678 8.40278 5.69004 8.40278 7.00011C8.40278 8.2883 7.35764 9.33344 6.06944 9.33344C4.75938 9.33344 3.73611 8.2883 3.73611 7.00011ZM6.06944 8.16678C6.71354 8.16678 7.23611 7.64421 7.23611 7.00011C7.23611 6.35601 6.71354 5.83344 6.06944 5.83344C5.42535 5.83344 4.90278 6.35601 4.90278 7.00011C4.90278 7.64421 5.42535 8.16678 6.06944 8.16678ZM14.0417 11.2779C14.3649 11.2779 14.625 11.538 14.625 11.8612C14.625 12.1845 14.3649 12.4446 14.0417 12.4446H6.06944C3.06285 12.4446 0.625 10.0067 0.625 7.00011C0.625 3.99351 3.06285 1.55566 6.06944 1.55566C9.07604 1.55566 11.5139 3.99351 11.5139 7.00011C11.5139 8.73553 10.7021 10.2595 9.43819 11.2779H14.0417ZM6.06944 11.2779C8.43194 11.2779 10.3472 9.36261 10.3472 7.00011C10.3472 4.63761 8.43194 2.72233 6.06944 2.72233C3.70694 2.72233 1.79167 4.63761 1.79167 7.00011C1.79167 9.36261 3.70694 11.2779 6.06944 11.2779Z" fill="#71717A"/>
</g>
<defs>
<clipPath id="clip0_8180_4540">
<rect width="14" height="12.4444" fill="white" transform="translate(0.625 0.777832)"/>
</clipPath>
</defs>
</svg>
