<svg width="20" height="20" viewBox="0 0 20 20" fill="none" xmlns="http://www.w3.org/2000/svg">
<path d="M20 4.41406C19.6354 4.58333 19.2546 4.72331 18.8574 4.83398C18.4603 4.94466 18.0534 5.01953 17.6367 5.05859C18.0664 4.8112 18.4375 4.49219 18.75 4.10156C19.0625 3.71094 19.2969 3.27474 19.4531 2.79297C19.0495 3.02734 18.6296 3.22917 18.1934 3.39844C17.7572 3.56771 17.3047 3.69792 16.8359 3.78906C16.4714 3.39844 16.0286 3.08594 15.5078 2.85156C14.987 2.61719 14.4336 2.5 13.8477 2.5C13.2878 2.5 12.7539 2.60417 12.2461 2.8125C11.7513 3.03385 11.3184 3.33008 10.9473 3.70117C10.5762 4.07227 10.2865 4.50521 10.0781 5C9.85677 5.49479 9.74609 6.02865 9.74609 6.60156C9.74609 6.75781 9.75586 6.91406 9.77539 7.07031C9.79492 7.22656 9.81771 7.38281 9.84375 7.53906C8.9974 7.5 8.17708 7.36979 7.38281 7.14844C6.57552 6.92708 5.8138 6.63086 5.09766 6.25977C4.38151 5.88867 3.71094 5.44922 3.08594 4.94141C2.46094 4.43359 1.89453 3.86719 1.38672 3.24219C1.21745 3.54167 1.08398 3.86719 0.986328 4.21875C0.888672 4.57031 0.839844 4.9349 0.839844 5.3125C0.839844 6.01562 1.00586 6.66667 1.33789 7.26562C1.66992 7.86458 2.10938 8.35286 2.65625 8.73047C2.33073 8.71745 2.00846 8.66536 1.68945 8.57422C1.37044 8.48307 1.07422 8.35938 0.800781 8.20312C0.800781 8.21615 0.800781 8.22591 0.800781 8.23242C0.800781 8.23893 0.800781 8.2487 0.800781 8.26172C0.800781 9.2513 1.11654 10.1237 1.74805 10.8789C2.37956 11.6341 3.16406 12.1029 4.10156 12.2852C3.93229 12.3372 3.75651 12.373 3.57422 12.3926C3.39193 12.4121 3.20312 12.4219 3.00781 12.4219C2.8776 12.4219 2.75065 12.4154 2.62695 12.4023C2.50326 12.3893 2.3763 12.3763 2.24609 12.3633C2.50651 13.1706 2.98503 13.8411 3.68164 14.375C4.37826 14.9089 5.17578 15.1888 6.07422 15.2148C5.37109 15.7617 4.58659 16.1914 3.7207 16.5039C2.85482 16.8164 1.9401 16.9727 0.976562 16.9727C0.807292 16.9727 0.641276 16.9661 0.478516 16.9531C0.315755 16.9401 0.15625 16.9271 0 16.9141C0.455729 17.2005 0.93099 17.4609 1.42578 17.6953C1.92057 17.9167 2.43164 18.1055 2.95898 18.2617C3.48633 18.418 4.02995 18.5417 4.58984 18.6328C5.14974 18.7109 5.71615 18.75 6.28906 18.75C8.17708 18.75 9.84375 18.3984 11.2891 17.6953C12.7474 16.9792 13.9714 16.0612 14.9609 14.9414C15.9505 13.8216 16.6992 12.5716 17.207 11.1914C17.7148 9.79818 17.9688 8.42448 17.9688 7.07031C17.9688 6.97917 17.9655 6.89128 17.959 6.80664C17.9525 6.722 17.9492 6.63411 17.9492 6.54297C18.3529 6.25651 18.7272 5.93425 19.0723 5.57617C19.4173 5.2181 19.7266 4.83073 20 4.41406Z" fill="#2A3546"/>
</svg>
