<svg width="18" height="20" viewBox="0 0 18 20" fill="none" xmlns="http://www.w3.org/2000/svg">
<g id="unlock 1" clip-path="url(#clip0_7908_3652)">
<path id="Vector" d="M5.625 7.5H15C16.3789 7.5 17.5 8.62109 17.5 10V17.5C17.5 18.8789 16.3789 20 15 20H2.5C1.11914 20 0 18.8789 0 17.5V10C0 8.62109 1.11914 7.5 2.5 7.5H3.75V5C3.75 2.23867 5.98828 0 8.75 0C10.9414 0 12.8594 1.45391 13.5078 3.46172C13.668 3.95312 13.3633 4.48438 12.9062 4.64062C12.4102 4.80078 11.8828 4.49609 11.7227 4.03906C11.3203 2.78203 10.1406 1.875 8.71484 1.875C7.02344 1.875 5.58984 3.27422 5.58984 5L5.625 7.5ZM1.875 17.5C1.875 17.8438 2.15469 18.125 2.5 18.125H15C15.3438 18.125 15.625 17.8438 15.625 17.5V10C15.625 9.65625 15.3438 9.375 15 9.375H2.5C2.15469 9.375 1.875 9.65625 1.875 10V17.5Z" fill="url(#paint0_linear_7908_3652)"/>
</g>
<defs>
<linearGradient id="paint0_linear_7908_3652" x1="0" y1="10" x2="17.5" y2="10" gradientUnits="userSpaceOnUse">
<stop stop-color="#893835"/>
<stop offset="1" stop-color="#FF564F"/>
</linearGradient>
<clipPath id="clip0_7908_3652">
<rect width="17.5" height="20" fill="white"/>
</clipPath>
</defs>
</svg>
