<svg width="20" height="21" viewBox="0 0 20 21" fill="none" xmlns="http://www.w3.org/2000/svg">
<rect width="20" height="21" fill="#838383"/>
<g id="Product Management / add new product" clip-path="url(#clip0_7519_482)">
<rect width="1440" height="1643" transform="translate(-563 -416)" fill="#FAFAFA"/>
<g id="Frame 34">
<g id="Frame 1">
<g id="Frame 101">
<g id=".card(legacy)">
<rect x="-420.5" y="-258.5" width="567" height="330" rx="11.5" fill="url(#paint0_linear_7519_482)"/>
<rect x="-420.5" y="-258.5" width="567" height="330" rx="11.5" stroke="#E4E4E7"/>
<g id="Frame 91">
<g id="Frame 97" filter="url(#filter0_b_7519_482)">
<rect x="-127" y="-65" width="254" height="117" rx="12" fill="white" fill-opacity="0.2"/>
<rect x="-126.5" y="-64.5" width="253" height="116" rx="11.5" stroke="white" stroke-opacity="0.52"/>
<g id="body" clip-path="url(#clip1_7519_482)">
</g>
</g>
</g>
</g>
</g>
</g>
</g>
<rect id="Rectangle 915" x="-563" y="-416" width="1440" height="1643" fill="black" fill-opacity="0.5"/>
<g id="Frame 124">
<rect x="-60" y="-316" width="540" height="654.886" rx="12" fill="white"/>
<g id="Component Upload file LMode - No File Chosen">
<g id="Component chosen file name/nofile-chosen">
<g id="Frame 100">
<g id="Component Button">
<rect x="-40" y="-40.1143" width="215" height="102" rx="8" stroke="#60A5FA" stroke-dasharray="2 2"/>
<g id="Frame">
<path id="Vector" d="M0 4.63574C0 3.25684 1.12109 2.13574 2.5 2.13574H17.5C18.8789 2.13574 20 3.25684 20 4.63574V17.1357C20 18.5146 18.8789 19.6357 17.5 19.6357H2.5C1.12109 19.6357 0 18.5146 0 17.1357V4.63574ZM12.6484 8.7959C12.4727 8.53809 12.1836 8.38574 11.875 8.38574C11.5664 8.38574 11.2734 8.53809 11.1016 8.7959L7.70312 13.7803L6.66797 12.4873C6.48828 12.2646 6.21875 12.1357 5.9375 12.1357C5.65625 12.1357 5.38281 12.2646 5.20703 12.4873L2.70703 15.6123C2.48047 15.8936 2.4375 16.2803 2.59375 16.6045C2.75 16.9287 3.07812 17.1357 3.4375 17.1357H7.1875H8.4375H16.5625C16.9102 17.1357 17.2305 16.9443 17.3906 16.6357C17.5508 16.3271 17.5312 15.9561 17.3359 15.6709L12.6484 8.7959ZM4.375 8.38574C4.87228 8.38574 5.34919 8.1882 5.70083 7.83657C6.05246 7.48494 6.25 7.00802 6.25 6.51074C6.25 6.01346 6.05246 5.53655 5.70083 5.18492C5.34919 4.83329 4.87228 4.63574 4.375 4.63574C3.87772 4.63574 3.40081 4.83329 3.04917 5.18492C2.69754 5.53655 2.5 6.01346 2.5 6.51074C2.5 7.00802 2.69754 7.48494 3.04917 7.83657C3.40081 8.1882 3.87772 8.38574 4.375 8.38574Z" fill="#93C5FD"/>
</g>
</g>
</g>
</g>
</g>
</g>
</g>
<defs>
<filter id="filter0_b_7519_482" x="-154.6" y="-92.6" width="309.2" height="172.2" filterUnits="userSpaceOnUse" color-interpolation-filters="sRGB">
<feFlood flood-opacity="0" result="BackgroundImageFix"/>
<feGaussianBlur in="BackgroundImageFix" stdDeviation="13.8"/>
<feComposite in2="SourceAlpha" operator="in" result="effect1_backgroundBlur_7519_482"/>
<feBlend mode="normal" in="SourceGraphic" in2="effect1_backgroundBlur_7519_482" result="shape"/>
</filter>
<linearGradient id="paint0_linear_7519_482" x1="-421" y1="-93.5" x2="147" y2="-93.5" gradientUnits="userSpaceOnUse">
<stop stop-color="#893835"/>
<stop offset="1" stop-color="#FF564F"/>
</linearGradient>
<clipPath id="clip0_7519_482">
<rect width="1440" height="1643" fill="white" transform="translate(-563 -416)"/>
</clipPath>
<clipPath id="clip1_7519_482">
<rect width="206" height="77" fill="white" transform="translate(-103 -45)"/>
</clipPath>
</defs>
</svg>
