<svg width="20" height="16" viewBox="0 0 20 16" fill="none" xmlns="http://www.w3.org/2000/svg">
<g id="user-plus 1" clip-path="url(#clip0_7908_3499)">
<path id="Vector" d="M7 8C9.20938 8 11 6.20906 11 4C11 1.79094 9.20938 0 7 0C4.79063 0 3 1.79094 3 4C3 6.20906 4.79063 8 7 8ZM7 1.5C8.37844 1.5 9.5 2.62156 9.5 4C9.5 5.37844 8.37844 6.5 7 6.5C5.62187 6.5 4.5 5.37813 4.5 4C4.5 2.62156 5.62187 1.5 7 1.5ZM8.58438 9.5H5.41563C2.42531 9.5 0 11.925 0 14.9156C0 15.5156 0.485 16 1.08312 16H12.9175C13.5156 16 14 15.5156 14 14.9156C14 11.925 11.575 9.5 8.58438 9.5ZM1.52219 14.5C1.73062 12.5344 3.39688 11 5.41563 11H8.58438C10.6034 11 12.2437 12.5353 12.4781 14.5H1.52219ZM19.25 6.25H17.75V4.75C17.75 4.3375 17.4156 4 17 4C16.5844 4 16.25 4.33594 16.25 4.75V6.25H14.75C14.3375 6.25 14 6.5875 14 7C14 7.4125 14.3359 7.75 14.75 7.75H16.25V9.25C16.25 9.66562 16.5875 10 17 10C17.4125 10 17.75 9.66406 17.75 9.25V7.75H19.25C19.6656 7.75 20 7.41563 20 7C20 6.58437 19.6656 6.25 19.25 6.25Z" fill="url(#paint0_linear_7908_3499)"/>
</g>
<defs>
<linearGradient id="paint0_linear_7908_3499" x1="0" y1="8" x2="20" y2="8" gradientUnits="userSpaceOnUse">
<stop stop-color="#893835"/>
<stop offset="1" stop-color="#FF564F"/>
</linearGradient>
<clipPath id="clip0_7908_3499">
<rect width="20" height="16" fill="white"/>
</clipPath>
</defs>
</svg>
