<svg width="15" height="16" viewBox="0 0 15 16" fill="none" xmlns="http://www.w3.org/2000/svg">
<g id="user-vneck 1" clip-path="url(#clip0_8180_4548)">
<path id="Vector" d="M3.625 4C3.625 1.79094 5.41563 0 7.625 0C9.83438 0 11.625 1.79094 11.625 4C11.625 6.20937 9.83438 8 7.625 8C5.41563 8 3.625 6.20937 3.625 4ZM10.125 4C10.125 2.61937 9.00625 1.5 7.625 1.5C6.24375 1.5 5.125 2.61937 5.125 4C5.125 5.38125 6.24375 6.5 7.625 6.5C9.00625 6.5 10.125 5.38125 10.125 4ZM14.625 14.9719C14.625 15.5531 14.1781 15.9719 13.625 15.9719H1.625C1.07281 15.9719 0.625 15.5531 0.625 14.9719V14.7219C0.625 12.1313 2.54156 9.9625 5.05 9.56563L7.625 13L10.2 9.56563C12.7094 9.9625 14.625 12.1313 14.625 14.7219V14.9719ZM4.45625 11.2781C3.1625 11.8062 2.22937 13.0406 2.13312 14.4719H6.84688L4.45625 11.2781ZM10.7937 11.2781L8.375 14.4719H13.1156C13.0219 13.0406 12.0875 11.8062 10.7937 11.2781Z" fill="#71717A"/>
</g>
<defs>
<clipPath id="clip0_8180_4548">
<rect width="14" height="16" fill="white" transform="translate(0.625)"/>
</clipPath>
</defs>
</svg>
