<svg width="10" height="12" viewBox="0 0 10 12" fill="none" xmlns="http://www.w3.org/2000/svg">
<g id="user-vneck 1" clip-path="url(#clip0_8172_1227)">
<path id="Vector" d="M2.14286 2.85714C2.14286 1.27924 3.42188 0 5 0C6.57812 0 7.85714 1.27924 7.85714 2.85714C7.85714 4.43527 6.57812 5.71429 5 5.71429C3.42188 5.71429 2.14286 4.43527 2.14286 2.85714ZM6.78571 2.85714C6.78571 1.87098 5.98661 1.07143 5 1.07143C4.01339 1.07143 3.21429 1.87098 3.21429 2.85714C3.21429 3.84375 4.01339 4.64286 5 4.64286C5.98661 4.64286 6.78571 3.84375 6.78571 2.85714ZM10 10.6942C10 11.1094 9.6808 11.4085 9.28571 11.4085H0.714286C0.319866 11.4085 0 11.1094 0 10.6942V10.5156C0 8.66518 1.36897 7.11607 3.16071 6.83259L5 9.28571L6.83929 6.83259C8.6317 7.11607 10 8.66518 10 10.5156V10.6942ZM2.73661 8.0558C1.8125 8.43304 1.14598 9.31473 1.07723 10.3371H4.4442L2.73661 8.0558ZM7.26339 8.0558L5.53571 10.3371H8.92188C8.85491 9.31473 8.1875 8.43304 7.26339 8.0558Z" fill="#FAFAFA"/>
</g>
<defs>
<clipPath id="clip0_8172_1227">
<rect width="10" height="11.4286" fill="white"/>
</clipPath>
</defs>
</svg>
