<svg width="20" height="20" viewBox="0 0 20 20" fill="none" xmlns="http://www.w3.org/2000/svg">
<g clip-path="url(#clip0_8533_4565)">
<path d="M2.65625 14.668C1.92708 14.668 1.30208 14.9284 0.78125 15.4492C0.260417 15.9701 0 16.5951 0 17.3242C0 18.0534 0.260417 18.6784 0.78125 19.1992C1.30208 19.7201 1.92708 19.9805 2.65625 19.9805C3.39844 19.9805 4.02995 19.7201 4.55078 19.1992C5.07161 18.6784 5.33203 18.0534 5.33203 17.3242C5.33203 16.5951 5.07161 15.9701 4.55078 15.4492C4.02995 14.9284 3.39844 14.668 2.65625 14.668ZM0 6.79688V10.625C0.625 10.625 1.23698 10.6836 1.83594 10.8008C2.4349 10.931 3.01432 11.11 3.57422 11.3379C4.13411 11.5658 4.67448 11.8555 5.19531 12.207C5.70312 12.5456 6.17839 12.9362 6.62109 13.3789C7.0638 13.8216 7.45443 14.2969 7.79297 14.8047C8.13151 15.3125 8.41471 15.8464 8.64258 16.4062C8.87044 16.9661 9.04948 17.5521 9.17969 18.1641C9.29688 18.763 9.35547 19.375 9.35547 20H13.2031C13.2031 18.1771 12.8581 16.4648 12.168 14.8633C11.4779 13.2617 10.5339 11.862 9.33594 10.6641C8.13802 9.46615 6.73828 8.52214 5.13672 7.83203C3.53516 7.14193 1.82292 6.79688 0 6.79688ZM0 0V3.82812C2.22656 3.82812 4.32292 4.25781 6.28906 5.11719C8.24219 5.96354 9.95117 7.11589 11.416 8.57422C12.8809 10.0326 14.0365 11.7448 14.8828 13.7109C15.7292 15.6771 16.1523 17.7734 16.1523 20H20C20 17.2396 19.4727 14.6484 18.418 12.2266C17.3763 9.79167 15.9505 7.66927 14.1406 5.85938C12.3307 4.04948 10.2083 2.6237 7.77344 1.58203C5.35156 0.527344 2.76042 0 0 0Z" fill="#2A3546"/>
</g>
<defs>
<clipPath id="clip0_8533_4565">
<rect width="20" height="20" fill="white" transform="matrix(1 0 0 -1 0 20)"/>
</clipPath>
</defs>
</svg>
