<svg width="15" height="14" viewBox="0 0 15 14" fill="none" xmlns="http://www.w3.org/2000/svg">
<g id="wrench 1" clip-path="url(#clip0_8180_4544)">
<path id="Vector" d="M14.502 3.20162C14.4445 2.86994 14.1637 2.60689 13.832 2.51447C13.5006 2.4256 13.1452 2.51789 12.927 2.76056L11.3 4.36373L10.4113 4.21607L10.2644 3.33068L11.8708 1.72424C12.1101 1.48156 12.2058 1.12595 12.1135 0.797829C12.0212 0.466149 11.7547 0.209938 11.423 0.124352C9.97055 -0.234671 8.49453 0.182458 7.41445 1.23861C6.38578 2.26756 5.97563 3.73728 6.3002 5.15697L1.25664 10.1469C0.857422 10.5954 0.625 11.1586 0.625 11.7329C0.625 12.3071 0.857422 12.895 1.25664 13.3188C1.65586 13.7426 2.26891 13.9997 2.84258 13.9997C3.44086 13.9997 4.00469 13.7672 4.42852 13.3434L9.44336 8.33131C10.8584 8.65615 12.3309 8.24586 13.3672 7.21021C14.4309 6.17115 14.8574 4.63443 14.502 3.20162ZM12.4621 6.28599C11.6828 7.06529 10.5412 7.32861 9.50625 6.97642L9.12016 6.84654L3.55023 12.4137C3.2016 12.7659 2.58637 12.7659 2.26234 12.4137C2.08464 12.2394 1.98893 12.0069 1.98893 11.7575C1.98893 11.5114 2.08464 11.2754 2.26234 11.1012L7.83773 5.52857L7.71127 5.1422C7.30781 4.07935 7.5457 2.93912 8.34141 2.16638C8.8984 1.61267 9.62984 1.31189 10.3676 1.31189H10.3983L8.8582 2.8817L9.27164 5.35631L11.7463 5.77002L13.315 4.20459C13.3262 4.95162 13.0254 5.71998 12.4621 6.28599ZM3.00664 11.1313C2.76396 11.1313 2.59375 11.3261 2.59375 11.5688C2.59375 11.8115 2.78857 12.0063 3.00664 12.0063C3.22471 12.0063 3.41953 11.8115 3.41953 11.5688C3.44414 11.3501 3.27379 11.1313 3.00664 11.1313Z" fill="#71717A"/>
</g>
<defs>
<clipPath id="clip0_8180_4544">
<rect width="14" height="14" fill="white" transform="translate(0.625)"/>
</clipPath>
</defs>
</svg>
