<svg width="20" height="20" viewBox="0 0 20 20" fill="none" xmlns="http://www.w3.org/2000/svg">
<path d="M19.1602 3.125C18.457 3.02083 17.7409 2.92969 17.0117 2.85156C16.2695 2.77344 15.5143 2.70833 14.7461 2.65625C13.9779 2.60417 13.2031 2.5651 12.4219 2.53906C11.6276 2.51302 10.8203 2.5 10 2.5C9.17969 2.5 8.3724 2.51302 7.57812 2.53906C6.79688 2.5651 6.02214 2.60417 5.25391 2.65625C4.48568 2.70833 3.73047 2.77344 2.98828 2.85156C2.25911 2.92969 1.54297 3.02083 0.839844 3.125C0.696615 3.65885 0.579427 4.19922 0.488281 4.74609C0.384115 5.29297 0.296224 5.85612 0.224609 6.43555C0.152995 7.01497 0.0976562 7.59766 0.0585938 8.18359C0.0195312 8.78255 0 9.38802 0 10C0 10.612 0.0195312 11.2174 0.0585938 11.8164C0.0976562 12.4023 0.152995 12.985 0.224609 13.5645C0.296224 14.1439 0.384115 14.707 0.488281 15.2539C0.579427 15.8008 0.696615 16.3411 0.839844 16.875C1.54297 16.9792 2.25911 17.0703 2.98828 17.1484C3.73047 17.2266 4.48568 17.2917 5.25391 17.3438C6.02214 17.3958 6.79688 17.4349 7.57812 17.4609C8.3724 17.487 9.17969 17.5 10 17.5C10.8203 17.5 11.6276 17.487 12.4219 17.4609C13.2031 17.4349 13.9779 17.3958 14.7461 17.3438C15.5143 17.2917 16.2695 17.2266 17.0117 17.1484C17.7409 17.0703 18.457 16.9792 19.1602 16.875C19.3034 16.3411 19.4206 15.8008 19.5117 15.2539C19.6159 14.707 19.7038 14.1439 19.7754 13.5645C19.847 12.985 19.9023 12.4023 19.9414 11.8164C19.9805 11.2174 20 10.612 20 10C20 9.38802 19.9805 8.78255 19.9414 8.18359C19.9023 7.59766 19.847 7.01497 19.7754 6.43555C19.7038 5.85612 19.6159 5.29297 19.5117 4.74609C19.4206 4.19922 19.3034 3.65885 19.1602 3.125ZM7.5 13.75V6.25L13.75 10L7.5 13.75Z" fill="#2A3546"/>
</svg>
